<svg width="99" height="107" viewBox="0 0 99 107" fill="none" xmlns="http://www.w3.org/2000/svg">
<mask id="path-1-outside-1_198_663" maskUnits="userSpaceOnUse" x="-2" y="-2" width="103" height="111" fill="black">
<rect fill="white" x="-2" y="-2" width="103" height="111"/>
<path d="M27.176 106.536C21.1173 106.536 16.0827 105.256 12.072 102.696C8.14667 100.136 5.16 96.5947 3.112 92.072C1.14933 87.5493 0.168 82.344 0.168 76.456V30.504C0.168 24.4453 1.10667 19.1547 2.984 14.632C4.94667 10.024 7.89067 6.43999 11.816 3.88C15.8267 1.31999 20.9467 0.0399933 27.176 0.0399933C33.4053 0.0399933 38.4827 1.31999 42.408 3.88C46.4187 6.43999 49.3627 10.024 51.24 14.632C53.2027 19.1547 54.184 24.4453 54.184 30.504V76.456C54.184 82.344 53.16 87.5493 51.112 92.072C49.1493 96.5947 46.1627 100.136 42.152 102.696C38.2267 105.256 33.2347 106.536 27.176 106.536ZM27.176 91.304C29.8213 91.304 31.784 90.4933 33.064 88.872C34.344 87.2507 35.1973 85.288 35.624 82.984C36.0507 80.68 36.264 78.4187 36.264 76.2V30.76C36.264 28.3707 36.0507 26.024 35.624 23.72C35.2827 21.3307 34.472 19.3253 33.192 17.704C31.912 16.0827 29.9067 15.272 27.176 15.272C24.4453 15.272 22.44 16.0827 21.16 17.704C19.88 19.3253 19.0267 21.3307 18.6 23.72C18.2587 26.024 18.088 28.3707 18.088 30.76V76.2C18.088 78.4187 18.3013 80.68 18.728 82.984C19.24 85.288 20.136 87.2507 21.416 88.872C22.696 90.4933 24.616 91.304 27.176 91.304ZM80.703 105V20.904C80.191 21.16 79.167 21.544 77.631 22.056C76.1803 22.568 74.559 23.08 72.767 23.592C70.975 24.0187 69.311 24.4453 67.775 24.872C66.3243 25.2987 65.3003 25.64 64.703 25.896V12.712C65.8977 12.2853 67.391 11.688 69.183 10.92C70.975 10.152 72.8523 9.29866 74.815 8.35999C76.863 7.336 78.7403 6.22666 80.447 5.032C82.239 3.83733 83.6897 2.6 84.799 1.31999H98.367V105H80.703Z"/>
</mask>
<path d="M12.072 102.696L10.9795 104.371L10.9877 104.377L10.9959 104.382L12.072 102.696ZM3.112 92.072L1.27731 92.8682L1.28359 92.8826L1.29009 92.897L3.112 92.072ZM2.984 14.632L1.14395 13.8483L1.14035 13.8567L1.13682 13.8652L2.984 14.632ZM11.816 3.88L10.7399 2.19415L10.7317 2.19942L10.7235 2.20478L11.816 3.88ZM42.408 3.88L41.3155 5.55522L41.3237 5.56057L41.3319 5.56584L42.408 3.88ZM51.24 14.632L49.3878 15.3866L49.3963 15.4075L49.4053 15.4282L51.24 14.632ZM51.112 92.072L49.2901 91.247L49.2836 91.2614L49.2773 91.2758L51.112 92.072ZM42.152 102.696L41.0759 101.01L41.0677 101.015L41.0595 101.021L42.152 102.696ZM33.064 88.872L34.6338 90.1113H34.6338L33.064 88.872ZM35.624 82.984L33.6574 82.6198V82.6198L35.624 82.984ZM35.624 23.72L33.6441 24.0028L33.6499 24.0436L33.6574 24.0842L35.624 23.72ZM33.192 17.704L31.6222 18.9433H31.6222L33.192 17.704ZM18.6 23.72L16.6311 23.3684L16.6259 23.3976L16.6216 23.4269L18.6 23.72ZM18.728 82.984L16.7614 83.3482L16.7679 83.3831L16.7756 83.4179L18.728 82.984ZM21.416 88.872L19.8462 90.1113L21.416 88.872ZM27.176 104.536C21.3953 104.536 16.7601 103.316 13.1481 101.01L10.9959 104.382C15.4052 107.196 20.8393 108.536 27.176 108.536V104.536ZM13.1645 101.021C9.57765 98.6815 6.83452 95.4442 4.93391 91.247L1.29009 92.897C3.48549 97.7452 6.71569 101.59 10.9795 104.371L13.1645 101.021ZM4.94669 91.2758C3.11211 87.0483 2.168 82.1224 2.168 76.456H-1.832C-1.832 82.5656 -0.813446 88.0504 1.27731 92.8682L4.94669 91.2758ZM2.168 76.456V30.504H-1.832V76.456H2.168ZM2.168 30.504C2.168 24.648 3.0756 19.6281 4.83118 15.3988L1.13682 13.8652C-0.862263 18.6812 -1.832 24.2427 -1.832 30.504H2.168ZM4.82405 15.4157C6.64261 11.1461 9.3384 7.88356 12.9085 5.55522L10.7235 2.20478C6.44293 4.99643 3.25072 8.90194 1.14395 13.8483L4.82405 15.4157ZM12.8921 5.56584C16.496 3.26547 21.2122 2.03999 27.176 2.03999V-1.96001C20.6811 -1.96001 15.1574 -0.625484 10.7399 2.19415L12.8921 5.56584ZM27.176 2.03999C33.1424 2.03999 37.806 3.26645 41.3155 5.55522L43.5005 2.20478C39.1593 -0.626457 33.6683 -1.96001 27.176 -1.96001V2.03999ZM41.3319 5.56584C44.9772 7.8926 47.659 11.1432 49.3878 15.3866L53.0922 13.8774C51.0663 8.9048 47.8601 4.98739 43.4841 2.19415L41.3319 5.56584ZM49.4053 15.4282C51.237 19.649 52.184 24.6582 52.184 30.504H56.184C56.184 24.2325 55.1683 18.6603 53.0747 13.8358L49.4053 15.4282ZM52.184 30.504V76.456H56.184V30.504H52.184ZM52.184 76.456C52.184 82.1117 51.2009 87.0272 49.2901 91.247L52.9339 92.897C55.1191 88.0715 56.184 82.5763 56.184 76.456H52.184ZM49.2773 91.2758C47.4672 95.447 44.7381 98.6726 41.0759 101.01L43.2281 104.382C47.5872 101.599 50.8315 97.7423 52.9467 92.8682L49.2773 91.2758ZM41.0595 101.021C37.5419 103.315 32.959 104.536 27.176 104.536V108.536C33.5104 108.536 38.9115 107.197 43.2445 104.371L41.0595 101.021ZM27.176 93.304C30.2462 93.304 32.8719 92.343 34.6338 90.1113L31.4942 87.6327C30.6961 88.6437 29.3965 89.304 27.176 89.304V93.304ZM34.6338 90.1113C36.1409 88.2023 37.1127 85.9284 37.5906 83.3482L33.6574 82.6198C33.2819 84.6476 32.5471 86.299 31.4942 87.6327L34.6338 90.1113ZM37.5906 83.3482C38.0382 80.9308 38.264 78.5474 38.264 76.2H34.264C34.264 78.2899 34.0631 80.4292 33.6574 82.6198L37.5906 83.3482ZM38.264 76.2V30.76H34.264V76.2H38.264ZM38.264 30.76C38.264 28.2509 38.0399 25.7823 37.5906 23.3558L33.6574 24.0842C34.0614 26.2657 34.264 28.4904 34.264 30.76H38.264ZM37.6039 23.4371C37.2211 20.7578 36.2949 18.4067 34.7618 16.4647L31.6222 18.9433C32.6491 20.244 33.3442 21.9035 33.6441 24.0028L37.6039 23.4371ZM34.7618 16.4647C32.9879 14.2178 30.3064 13.272 27.176 13.272V17.272C29.507 17.272 30.8361 17.9475 31.6222 18.9433L34.7618 16.4647ZM27.176 13.272C24.0456 13.272 21.3641 14.2178 19.5902 16.4647L22.7298 18.9433C23.5159 17.9475 24.845 17.272 27.176 17.272V13.272ZM19.5902 16.4647C18.0731 18.3864 17.1056 20.7116 16.6311 23.3684L20.5689 24.0716C20.9478 21.9497 21.6869 20.2643 22.7298 18.9433L19.5902 16.4647ZM16.6216 23.4269C16.2655 25.8304 16.088 28.2751 16.088 30.76H20.088C20.088 28.4662 20.2518 26.2176 20.5784 24.0131L16.6216 23.4269ZM16.088 30.76V76.2H20.088V30.76H16.088ZM16.088 76.2C16.088 78.5474 16.3138 80.9307 16.7614 83.3482L20.6946 82.6198C20.2889 80.4292 20.088 78.2899 20.088 76.2H16.088ZM16.7756 83.4179C17.3436 85.9737 18.3548 88.2221 19.8462 90.1113L22.9858 87.6327C21.9172 86.2792 21.1364 84.6023 20.6804 82.5501L16.7756 83.4179ZM19.8462 90.1113C21.5954 92.3269 24.1653 93.304 27.176 93.304V89.304C25.0667 89.304 23.7966 88.6598 22.9858 87.6327L19.8462 90.1113ZM80.703 105H78.703V107H80.703V105ZM80.703 20.904H82.703V17.6679L79.8086 19.1151L80.703 20.904ZM77.631 22.056L76.9985 20.1586L76.9819 20.1642L76.9654 20.17L77.631 22.056ZM72.767 23.592L73.2302 25.5376L73.2736 25.5273L73.3164 25.515L72.767 23.592ZM67.775 24.872L67.2397 22.945L67.2252 22.949L67.2107 22.9533L67.775 24.872ZM64.703 25.896H62.703V28.9291L65.4908 27.7343L64.703 25.896ZM64.703 12.712L64.0303 10.8285L62.703 11.3026V12.712H64.703ZM69.183 10.92L69.9708 12.7583L69.183 10.92ZM74.815 8.35999L75.6779 10.1643L75.6937 10.1567L75.7094 10.1488L74.815 8.35999ZM80.447 5.032L79.3376 3.3679L79.3187 3.3805L79.3001 3.39354L80.447 5.032ZM84.799 1.31999V-0.680008H83.8857L83.2876 0.0101318L84.799 1.31999ZM98.367 1.31999H100.367V-0.680008H98.367V1.31999ZM98.367 105V107H100.367V105H98.367ZM82.703 105V20.904H78.703V105H82.703ZM79.8086 19.1151C79.443 19.2979 78.5513 19.641 76.9985 20.1586L78.2635 23.9534C79.7827 23.447 80.939 23.022 81.5974 22.6929L79.8086 19.1151ZM76.9654 20.17C75.56 20.666 73.9783 21.1659 72.2176 21.6689L73.3164 25.515C75.1397 24.9941 76.8006 24.47 78.2966 23.942L76.9654 20.17ZM72.3038 21.6464C70.4912 22.0779 68.8029 22.5107 67.2397 22.945L68.3103 26.799C69.8191 26.3799 71.4588 25.9594 73.2302 25.5376L72.3038 21.6464ZM67.2107 22.9533C65.7569 23.3808 64.632 23.7505 63.9152 24.0577L65.4908 27.7343C65.9687 27.5295 66.8918 27.2165 68.3393 26.7907L67.2107 22.9533ZM66.703 25.896V12.712H62.703V25.896H66.703ZM65.3757 14.5955C66.6239 14.1497 68.1587 13.5349 69.9708 12.7583L68.3952 9.08171C66.6233 9.84107 65.1714 10.421 64.0303 10.8285L65.3757 14.5955ZM69.9708 12.7583C71.7908 11.9783 73.6933 11.1134 75.6779 10.1643L73.9521 6.55573C72.0114 7.48388 70.1592 8.32568 68.3952 9.08171L69.9708 12.7583ZM75.7094 10.1488C77.8367 9.08524 79.7995 7.92659 81.5939 6.67046L79.3001 3.39354C77.6812 4.52674 75.8894 5.58675 73.9206 6.57114L75.7094 10.1488ZM81.5564 6.6961C83.4593 5.42747 85.0568 4.07632 86.3104 2.62985L83.2876 0.0101318C82.3226 1.12368 81.0187 2.24719 79.3376 3.3679L81.5564 6.6961ZM84.799 3.31999H98.367V-0.680008H84.799V3.31999ZM96.367 1.31999V105H100.367V1.31999H96.367ZM98.367 103H80.703V107H98.367V103Z" fill="#FFF200" mask="url(#path-1-outside-1_198_663)"/>
</svg>
