<svg width="121" height="107" viewBox="0 0 121 107" fill="none" xmlns="http://www.w3.org/2000/svg">
<mask id="path-1-outside-1_193_538" maskUnits="userSpaceOnUse" x="-2" y="-2" width="125" height="111" fill="black">
<rect fill="white" x="-2" y="-2" width="125" height="111"/>
<path d="M27.176 106.536C21.1173 106.536 16.0827 105.256 12.072 102.696C8.14667 100.136 5.16 96.5947 3.112 92.072C1.14933 87.5493 0.168 82.344 0.168 76.456V30.504C0.168 24.4453 1.10667 19.1547 2.984 14.632C4.94667 10.024 7.89067 6.43999 11.816 3.88C15.8267 1.31999 20.9467 0.0399933 27.176 0.0399933C33.4053 0.0399933 38.4827 1.31999 42.408 3.88C46.4187 6.43999 49.3627 10.024 51.24 14.632C53.2027 19.1547 54.184 24.4453 54.184 30.504V76.456C54.184 82.344 53.16 87.5493 51.112 92.072C49.1493 96.5947 46.1627 100.136 42.152 102.696C38.2267 105.256 33.2347 106.536 27.176 106.536ZM27.176 91.304C29.8213 91.304 31.784 90.4933 33.064 88.872C34.344 87.2507 35.1973 85.288 35.624 82.984C36.0507 80.68 36.264 78.4187 36.264 76.2V30.76C36.264 28.3707 36.0507 26.024 35.624 23.72C35.2827 21.3307 34.472 19.3253 33.192 17.704C31.912 16.0827 29.9067 15.272 27.176 15.272C24.4453 15.272 22.44 16.0827 21.16 17.704C19.88 19.3253 19.0267 21.3307 18.6 23.72C18.2587 26.024 18.088 28.3707 18.088 30.76V76.2C18.088 78.4187 18.3013 80.68 18.728 82.984C19.24 85.288 20.136 87.2507 21.416 88.872C22.696 90.4933 24.616 91.304 27.176 91.304ZM66.623 105V92.456L92.223 52.904C94.1003 50.0027 95.8497 47.2293 97.471 44.584C99.1777 41.9387 100.543 39.208 101.567 36.392C102.676 33.4907 103.231 30.3333 103.231 26.92C103.231 23.08 102.548 20.136 101.183 18.088C99.8177 16.04 97.6843 15.016 94.783 15.016C92.0523 15.016 89.919 15.784 88.383 17.32C86.847 18.856 85.7803 20.8613 85.183 23.336C84.671 25.8107 84.415 28.5413 84.415 31.528V35.88H67.007V31.272C67.007 25.128 67.903 19.752 69.695 15.144C71.5723 10.4507 74.5163 6.78133 78.527 4.13599C82.5377 1.49066 87.7857 0.167992 94.271 0.167992C103.146 0.167992 109.802 2.55733 114.239 7.336C118.676 12.1147 120.895 18.7707 120.895 27.304C120.895 31.5707 120.298 35.4533 119.103 38.952C117.908 42.3653 116.33 45.6507 114.367 48.808C112.404 51.9653 110.271 55.208 107.967 58.536L86.719 90.792H118.207V105H66.623Z"/>
</mask>
<path d="M12.072 102.696L10.9795 104.371L10.9877 104.377L10.9959 104.382L12.072 102.696ZM3.112 92.072L1.27731 92.8682L1.28359 92.8826L1.29009 92.897L3.112 92.072ZM2.984 14.632L1.14395 13.8483L1.14035 13.8567L1.13682 13.8652L2.984 14.632ZM11.816 3.88L10.7399 2.19415L10.7317 2.19942L10.7235 2.20478L11.816 3.88ZM42.408 3.88L41.3155 5.55522L41.3237 5.56057L41.3319 5.56584L42.408 3.88ZM51.24 14.632L49.3878 15.3866L49.3963 15.4075L49.4053 15.4282L51.24 14.632ZM51.112 92.072L49.2901 91.247L49.2836 91.2614L49.2773 91.2758L51.112 92.072ZM42.152 102.696L41.0759 101.01L41.0677 101.015L41.0595 101.021L42.152 102.696ZM33.064 88.872L34.6338 90.1113H34.6338L33.064 88.872ZM35.624 82.984L33.6574 82.6198V82.6198L35.624 82.984ZM35.624 23.72L33.6441 24.0028L33.6499 24.0436L33.6574 24.0842L35.624 23.72ZM33.192 17.704L31.6222 18.9433H31.6222L33.192 17.704ZM18.6 23.72L16.6311 23.3684L16.6259 23.3976L16.6216 23.4269L18.6 23.72ZM18.728 82.984L16.7614 83.3482L16.7679 83.3831L16.7756 83.4179L18.728 82.984ZM21.416 88.872L19.8462 90.1113L21.416 88.872ZM27.176 104.536C21.3953 104.536 16.7601 103.316 13.1481 101.01L10.9959 104.382C15.4052 107.196 20.8393 108.536 27.176 108.536V104.536ZM13.1645 101.021C9.57765 98.6815 6.83452 95.4442 4.93391 91.247L1.29009 92.897C3.48549 97.7452 6.71569 101.59 10.9795 104.371L13.1645 101.021ZM4.94669 91.2758C3.11211 87.0483 2.168 82.1224 2.168 76.456H-1.832C-1.832 82.5656 -0.813446 88.0504 1.27731 92.8682L4.94669 91.2758ZM2.168 76.456V30.504H-1.832V76.456H2.168ZM2.168 30.504C2.168 24.648 3.0756 19.6281 4.83118 15.3988L1.13682 13.8652C-0.862263 18.6812 -1.832 24.2427 -1.832 30.504H2.168ZM4.82405 15.4157C6.64261 11.1461 9.3384 7.88356 12.9085 5.55522L10.7235 2.20478C6.44293 4.99643 3.25072 8.90194 1.14395 13.8483L4.82405 15.4157ZM12.8921 5.56584C16.496 3.26547 21.2122 2.03999 27.176 2.03999V-1.96001C20.6811 -1.96001 15.1574 -0.625484 10.7399 2.19415L12.8921 5.56584ZM27.176 2.03999C33.1424 2.03999 37.806 3.26645 41.3155 5.55522L43.5005 2.20478C39.1593 -0.626457 33.6683 -1.96001 27.176 -1.96001V2.03999ZM41.3319 5.56584C44.9772 7.8926 47.659 11.1432 49.3878 15.3866L53.0922 13.8774C51.0663 8.9048 47.8601 4.98739 43.4841 2.19415L41.3319 5.56584ZM49.4053 15.4282C51.237 19.649 52.184 24.6582 52.184 30.504H56.184C56.184 24.2325 55.1683 18.6603 53.0747 13.8358L49.4053 15.4282ZM52.184 30.504V76.456H56.184V30.504H52.184ZM52.184 76.456C52.184 82.1117 51.2009 87.0272 49.2901 91.247L52.9339 92.897C55.1191 88.0715 56.184 82.5763 56.184 76.456H52.184ZM49.2773 91.2758C47.4672 95.447 44.7381 98.6726 41.0759 101.01L43.2281 104.382C47.5872 101.599 50.8315 97.7423 52.9467 92.8682L49.2773 91.2758ZM41.0595 101.021C37.5419 103.315 32.959 104.536 27.176 104.536V108.536C33.5104 108.536 38.9115 107.197 43.2445 104.371L41.0595 101.021ZM27.176 93.304C30.2462 93.304 32.8719 92.343 34.6338 90.1113L31.4942 87.6327C30.6961 88.6437 29.3965 89.304 27.176 89.304V93.304ZM34.6338 90.1113C36.1409 88.2023 37.1127 85.9284 37.5906 83.3482L33.6574 82.6198C33.2819 84.6476 32.5471 86.299 31.4942 87.6327L34.6338 90.1113ZM37.5906 83.3482C38.0382 80.9308 38.264 78.5474 38.264 76.2H34.264C34.264 78.2899 34.0631 80.4292 33.6574 82.6198L37.5906 83.3482ZM38.264 76.2V30.76H34.264V76.2H38.264ZM38.264 30.76C38.264 28.2509 38.0399 25.7823 37.5906 23.3558L33.6574 24.0842C34.0614 26.2657 34.264 28.4904 34.264 30.76H38.264ZM37.6039 23.4371C37.2211 20.7578 36.2949 18.4067 34.7618 16.4647L31.6222 18.9433C32.6491 20.244 33.3442 21.9035 33.6441 24.0028L37.6039 23.4371ZM34.7618 16.4647C32.9879 14.2178 30.3064 13.272 27.176 13.272V17.272C29.507 17.272 30.8361 17.9475 31.6222 18.9433L34.7618 16.4647ZM27.176 13.272C24.0456 13.272 21.3641 14.2178 19.5902 16.4647L22.7298 18.9433C23.5159 17.9475 24.845 17.272 27.176 17.272V13.272ZM19.5902 16.4647C18.0731 18.3864 17.1056 20.7116 16.6311 23.3684L20.5689 24.0716C20.9478 21.9497 21.6869 20.2643 22.7298 18.9433L19.5902 16.4647ZM16.6216 23.4269C16.2655 25.8304 16.088 28.2751 16.088 30.76H20.088C20.088 28.4662 20.2518 26.2176 20.5784 24.0131L16.6216 23.4269ZM16.088 30.76V76.2H20.088V30.76H16.088ZM16.088 76.2C16.088 78.5474 16.3138 80.9307 16.7614 83.3482L20.6946 82.6198C20.2889 80.4292 20.088 78.2899 20.088 76.2H16.088ZM16.7756 83.4179C17.3436 85.9737 18.3548 88.2221 19.8462 90.1113L22.9858 87.6327C21.9172 86.2792 21.1364 84.6023 20.6804 82.5501L16.7756 83.4179ZM19.8462 90.1113C21.5954 92.3269 24.1653 93.304 27.176 93.304V89.304C25.0667 89.304 23.7966 88.6598 22.9858 87.6327L19.8462 90.1113ZM66.623 105H64.623V107H66.623V105ZM66.623 92.456L64.944 91.3693L64.623 91.8652V92.456H66.623ZM92.223 52.904L93.902 53.9907L93.9021 53.9905L92.223 52.904ZM97.471 44.584L95.7904 43.4997L95.7779 43.5192L95.7658 43.5389L97.471 44.584ZM101.567 36.392L99.6989 35.6777L99.693 35.6931L99.6874 35.7085L101.567 36.392ZM88.383 17.32L86.9688 15.9058L88.383 17.32ZM85.183 23.336L83.2388 22.8667L83.2311 22.8986L83.2245 22.9308L85.183 23.336ZM84.415 35.88V37.88H86.415V35.88H84.415ZM67.007 35.88H65.007V37.88H67.007V35.88ZM69.695 15.144L67.8381 14.4012L67.8345 14.4101L67.831 14.4191L69.695 15.144ZM78.527 4.13599L77.4258 2.46645L78.527 4.13599ZM114.239 7.336L112.773 8.6969L114.239 7.336ZM119.103 38.952L120.991 39.6127L120.993 39.6055L120.996 39.5983L119.103 38.952ZM114.367 48.808L116.066 49.8639L114.367 48.808ZM107.967 58.536L106.323 57.3976L106.309 57.4165L106.297 57.4358L107.967 58.536ZM86.719 90.792L85.0488 89.6918L83.0066 92.792H86.719V90.792ZM118.207 90.792H120.207V88.792H118.207V90.792ZM118.207 105V107H120.207V105H118.207ZM68.623 105V92.456H64.623V105H68.623ZM68.302 93.5427L93.902 53.9907L90.544 51.8173L64.944 91.3693L68.302 93.5427ZM93.9021 53.9905C95.7874 51.077 97.5455 48.2898 99.1762 45.6291L95.7658 43.5389C94.1539 46.1689 92.4133 48.9283 90.5439 51.8175L93.9021 53.9905ZM99.1516 45.6683C100.935 42.9035 102.369 40.039 103.447 37.0755L99.6874 35.7085C98.7171 38.377 97.4201 40.9738 95.7904 43.4997L99.1516 45.6683ZM103.435 37.1063C104.64 33.9554 105.231 30.5533 105.231 26.92H101.231C101.231 30.1133 100.713 33.0259 99.6989 35.6777L103.435 37.1063ZM105.231 26.92C105.231 22.8894 104.522 19.4916 102.847 16.9786L99.5189 19.1974C100.574 20.7804 101.231 23.2706 101.231 26.92H105.231ZM102.847 16.9786C101.04 14.2683 98.2149 13.016 94.783 13.016V17.016C97.1537 17.016 98.5951 17.8117 99.5189 19.1974L102.847 16.9786ZM94.783 13.016C91.6657 13.016 88.9706 13.904 86.9688 15.9058L89.7972 18.7342C90.8674 17.664 92.439 17.016 94.783 17.016V13.016ZM86.9688 15.9058C85.1307 17.7439 83.9075 20.0967 83.2388 22.8667L87.1272 23.8053C87.6532 21.626 88.5633 19.9681 89.7972 18.7342L86.9688 15.9058ZM83.2245 22.9308C82.6805 25.5602 82.415 28.429 82.415 31.528H86.415C86.415 28.6536 86.6615 26.0611 87.1415 23.7412L83.2245 22.9308ZM82.415 31.528V35.88H86.415V31.528H82.415ZM84.415 33.88H67.007V37.88H84.415V33.88ZM69.007 35.88V31.272H65.007V35.88H69.007ZM69.007 31.272C69.007 25.3179 69.8758 20.1972 71.559 15.8689L67.831 14.4191C65.9302 19.3068 65.007 24.9381 65.007 31.272H69.007ZM71.552 15.8868C73.2861 11.5513 75.9764 8.21418 79.6282 5.80554L77.4258 2.46645C73.0563 5.34848 69.8585 9.35002 67.8381 14.4012L71.552 15.8868ZM79.6282 5.80554C83.216 3.43909 88.0437 2.16799 94.271 2.16799V-1.83201C87.5277 -1.83201 81.8593 -0.457771 77.4258 2.46645L79.6282 5.80554ZM94.271 2.16799C102.798 2.16799 108.836 4.45673 112.773 8.6969L115.705 5.9751C110.767 0.657925 103.494 -1.83201 94.271 -1.83201V2.16799ZM112.773 8.6969C116.772 13.0029 118.895 19.1153 118.895 27.304H122.895C122.895 18.426 120.581 11.2264 115.705 5.9751L112.773 8.6969ZM118.895 27.304C118.895 31.384 118.324 35.0444 117.21 38.3057L120.996 39.5983C122.271 35.8623 122.895 31.7573 122.895 27.304H118.895ZM117.215 38.2913C116.07 41.5626 114.556 44.7157 112.668 47.7521L116.066 49.8639C118.103 46.5856 119.746 43.1681 120.991 39.6127L117.215 38.2913ZM112.668 47.7521C110.725 50.8792 108.61 54.0943 106.323 57.3976L109.611 59.6744C111.933 56.3217 114.084 53.0515 116.066 49.8639L112.668 47.7521ZM106.297 57.4358L85.0488 89.6918L88.3892 91.8922L109.637 59.6362L106.297 57.4358ZM86.719 92.792H118.207V88.792H86.719V92.792ZM116.207 90.792V105H120.207V90.792H116.207ZM118.207 103H66.623V107H118.207V103Z" fill="#FFF200" mask="url(#path-1-outside-1_193_538)"/>
</svg>
