<svg width="124" height="107" viewBox="0 0 124 107" fill="none" xmlns="http://www.w3.org/2000/svg">
<mask id="path-1-outside-1_198_670" maskUnits="userSpaceOnUse" x="-2" y="-2" width="128" height="111" fill="black">
<rect fill="white" x="-2" y="-2" width="128" height="111"/>
<path d="M27.176 106.536C21.1173 106.536 16.0827 105.256 12.072 102.696C8.14667 100.136 5.16 96.5947 3.112 92.072C1.14933 87.5493 0.168 82.344 0.168 76.456V30.504C0.168 24.4453 1.10667 19.1547 2.984 14.632C4.94667 10.024 7.89067 6.43999 11.816 3.88C15.8267 1.31999 20.9467 0.0399933 27.176 0.0399933C33.4053 0.0399933 38.4827 1.31999 42.408 3.88C46.4187 6.43999 49.3627 10.024 51.24 14.632C53.2027 19.1547 54.184 24.4453 54.184 30.504V76.456C54.184 82.344 53.16 87.5493 51.112 92.072C49.1493 96.5947 46.1627 100.136 42.152 102.696C38.2267 105.256 33.2347 106.536 27.176 106.536ZM27.176 91.304C29.8213 91.304 31.784 90.4933 33.064 88.872C34.344 87.2507 35.1973 85.288 35.624 82.984C36.0507 80.68 36.264 78.4187 36.264 76.2V30.76C36.264 28.3707 36.0507 26.024 35.624 23.72C35.2827 21.3307 34.472 19.3253 33.192 17.704C31.912 16.0827 29.9067 15.272 27.176 15.272C24.4453 15.272 22.44 16.0827 21.16 17.704C19.88 19.3253 19.0267 21.3307 18.6 23.72C18.2587 26.024 18.088 28.3707 18.088 30.76V76.2C18.088 78.4187 18.3013 80.68 18.728 82.984C19.24 85.288 20.136 87.2507 21.416 88.872C22.696 90.4933 24.616 91.304 27.176 91.304ZM96.447 105V79.528H65.471V64.424L92.479 1.31999H113.087V65.448H123.711V79.528H113.087V105H96.447ZM80.319 65.448H96.447V20.392L80.319 65.448Z"/>
</mask>
<path d="M12.072 102.696L10.9795 104.371L10.9877 104.377L10.9959 104.382L12.072 102.696ZM3.112 92.072L1.27731 92.8682L1.28359 92.8826L1.29009 92.897L3.112 92.072ZM2.984 14.632L1.14395 13.8483L1.14035 13.8567L1.13682 13.8652L2.984 14.632ZM11.816 3.88L10.7399 2.19415L10.7317 2.19942L10.7235 2.20478L11.816 3.88ZM42.408 3.88L41.3155 5.55522L41.3237 5.56057L41.3319 5.56584L42.408 3.88ZM51.24 14.632L49.3878 15.3866L49.3963 15.4075L49.4053 15.4282L51.24 14.632ZM51.112 92.072L49.2901 91.247L49.2836 91.2614L49.2773 91.2758L51.112 92.072ZM42.152 102.696L41.0759 101.01L41.0677 101.015L41.0595 101.021L42.152 102.696ZM33.064 88.872L34.6338 90.1113H34.6338L33.064 88.872ZM35.624 82.984L33.6574 82.6198V82.6198L35.624 82.984ZM35.624 23.72L33.6441 24.0028L33.6499 24.0436L33.6574 24.0842L35.624 23.72ZM33.192 17.704L31.6222 18.9433H31.6222L33.192 17.704ZM18.6 23.72L16.6311 23.3684L16.6259 23.3976L16.6216 23.4269L18.6 23.72ZM18.728 82.984L16.7614 83.3482L16.7679 83.3831L16.7756 83.4179L18.728 82.984ZM21.416 88.872L19.8462 90.1113L21.416 88.872ZM27.176 104.536C21.3953 104.536 16.7601 103.316 13.1481 101.01L10.9959 104.382C15.4052 107.196 20.8393 108.536 27.176 108.536V104.536ZM13.1645 101.021C9.57765 98.6815 6.83452 95.4442 4.93391 91.247L1.29009 92.897C3.48549 97.7452 6.71569 101.59 10.9795 104.371L13.1645 101.021ZM4.94669 91.2758C3.11211 87.0483 2.168 82.1224 2.168 76.456H-1.832C-1.832 82.5656 -0.813446 88.0504 1.27731 92.8682L4.94669 91.2758ZM2.168 76.456V30.504H-1.832V76.456H2.168ZM2.168 30.504C2.168 24.648 3.0756 19.6281 4.83118 15.3988L1.13682 13.8652C-0.862263 18.6812 -1.832 24.2427 -1.832 30.504H2.168ZM4.82405 15.4157C6.64261 11.1461 9.3384 7.88356 12.9085 5.55522L10.7235 2.20478C6.44293 4.99643 3.25072 8.90194 1.14395 13.8483L4.82405 15.4157ZM12.8921 5.56584C16.496 3.26547 21.2122 2.03999 27.176 2.03999V-1.96001C20.6811 -1.96001 15.1574 -0.625484 10.7399 2.19415L12.8921 5.56584ZM27.176 2.03999C33.1424 2.03999 37.806 3.26645 41.3155 5.55522L43.5005 2.20478C39.1593 -0.626457 33.6683 -1.96001 27.176 -1.96001V2.03999ZM41.3319 5.56584C44.9772 7.8926 47.659 11.1432 49.3878 15.3866L53.0922 13.8774C51.0663 8.9048 47.8601 4.98739 43.4841 2.19415L41.3319 5.56584ZM49.4053 15.4282C51.237 19.649 52.184 24.6582 52.184 30.504H56.184C56.184 24.2325 55.1683 18.6603 53.0747 13.8358L49.4053 15.4282ZM52.184 30.504V76.456H56.184V30.504H52.184ZM52.184 76.456C52.184 82.1117 51.2009 87.0272 49.2901 91.247L52.9339 92.897C55.1191 88.0715 56.184 82.5763 56.184 76.456H52.184ZM49.2773 91.2758C47.4672 95.447 44.7381 98.6726 41.0759 101.01L43.2281 104.382C47.5872 101.599 50.8315 97.7423 52.9467 92.8682L49.2773 91.2758ZM41.0595 101.021C37.5419 103.315 32.959 104.536 27.176 104.536V108.536C33.5104 108.536 38.9115 107.197 43.2445 104.371L41.0595 101.021ZM27.176 93.304C30.2462 93.304 32.8719 92.343 34.6338 90.1113L31.4942 87.6327C30.6961 88.6437 29.3965 89.304 27.176 89.304V93.304ZM34.6338 90.1113C36.1409 88.2023 37.1127 85.9284 37.5906 83.3482L33.6574 82.6198C33.2819 84.6476 32.5471 86.299 31.4942 87.6327L34.6338 90.1113ZM37.5906 83.3482C38.0382 80.9308 38.264 78.5474 38.264 76.2H34.264C34.264 78.2899 34.0631 80.4292 33.6574 82.6198L37.5906 83.3482ZM38.264 76.2V30.76H34.264V76.2H38.264ZM38.264 30.76C38.264 28.2509 38.0399 25.7823 37.5906 23.3558L33.6574 24.0842C34.0614 26.2657 34.264 28.4904 34.264 30.76H38.264ZM37.6039 23.4371C37.2211 20.7578 36.2949 18.4067 34.7618 16.4647L31.6222 18.9433C32.6491 20.244 33.3442 21.9035 33.6441 24.0028L37.6039 23.4371ZM34.7618 16.4647C32.9879 14.2178 30.3064 13.272 27.176 13.272V17.272C29.507 17.272 30.8361 17.9475 31.6222 18.9433L34.7618 16.4647ZM27.176 13.272C24.0456 13.272 21.3641 14.2178 19.5902 16.4647L22.7298 18.9433C23.5159 17.9475 24.845 17.272 27.176 17.272V13.272ZM19.5902 16.4647C18.0731 18.3864 17.1056 20.7116 16.6311 23.3684L20.5689 24.0716C20.9478 21.9497 21.6869 20.2643 22.7298 18.9433L19.5902 16.4647ZM16.6216 23.4269C16.2655 25.8304 16.088 28.2751 16.088 30.76H20.088C20.088 28.4662 20.2518 26.2176 20.5784 24.0131L16.6216 23.4269ZM16.088 30.76V76.2H20.088V30.76H16.088ZM16.088 76.2C16.088 78.5474 16.3138 80.9307 16.7614 83.3482L20.6946 82.6198C20.2889 80.4292 20.088 78.2899 20.088 76.2H16.088ZM16.7756 83.4179C17.3436 85.9737 18.3548 88.2221 19.8462 90.1113L22.9858 87.6327C21.9172 86.2792 21.1364 84.6023 20.6804 82.5501L16.7756 83.4179ZM19.8462 90.1113C21.5954 92.3269 24.1653 93.304 27.176 93.304V89.304C25.0667 89.304 23.7966 88.6598 22.9858 87.6327L19.8462 90.1113ZM96.447 105H94.447V107H96.447V105ZM96.447 79.528H98.447V77.528H96.447V79.528ZM65.471 79.528H63.471V81.528H65.471V79.528ZM65.471 64.424L63.6323 63.6371L63.471 64.014V64.424H65.471ZM92.479 1.31999V-0.680008H91.1595L90.6403 0.533054L92.479 1.31999ZM113.087 1.31999H115.087V-0.680008H113.087V1.31999ZM113.087 65.448H111.087V67.448H113.087V65.448ZM123.711 65.448H125.711V63.448H123.711V65.448ZM123.711 79.528V81.528H125.711V79.528H123.711ZM113.087 79.528V77.528H111.087V79.528H113.087ZM113.087 105V107H115.087V105H113.087ZM80.319 65.448L78.436 64.774L77.4788 67.448H80.319V65.448ZM96.447 65.448V67.448H98.447V65.448H96.447ZM96.447 20.392H98.447L94.564 19.718L96.447 20.392ZM98.447 105V79.528H94.447V105H98.447ZM96.447 77.528H65.471V81.528H96.447V77.528ZM67.471 79.528V64.424H63.471V79.528H67.471ZM67.3097 65.2109L94.3177 2.10693L90.6403 0.533054L63.6323 63.6371L67.3097 65.2109ZM92.479 3.31999H113.087V-0.680008H92.479V3.31999ZM111.087 1.31999V65.448H115.087V1.31999H111.087ZM113.087 67.448H123.711V63.448H113.087V67.448ZM121.711 65.448V79.528H125.711V65.448H121.711ZM123.711 77.528H113.087V81.528H123.711V77.528ZM111.087 79.528V105H115.087V79.528H111.087ZM113.087 103H96.447V107H113.087V103ZM80.319 67.448H96.447V63.448H80.319V67.448ZM98.447 65.448V20.392H94.447V65.448H98.447ZM94.564 19.718L78.436 64.774L82.202 66.122L98.33 21.066L94.564 19.718Z" fill="#FFF200" mask="url(#path-1-outside-1_198_670)"/>
</svg>
