<svg width="106" height="112" viewBox="0 0 106 112" fill="none" xmlns="http://www.w3.org/2000/svg">
<g clip-path="url(#clip0_387_126)">
<path fill-rule="evenodd" clip-rule="evenodd" d="M80.6406 9.63947C76.4693 14.9411 72.992 19.6765 72.9134 20.1635C72.6469 21.8198 73.5917 22.3125 77.0344 22.3125H80.2524V25.2875C80.2524 27.0183 80.4719 28.4821 80.7757 28.7875C81.1475 29.1598 83.7542 29.3125 89.7283 29.3125H98.1567L98.5822 28.1903C98.8159 27.573 99.007 25.998 99.007 24.6903V22.3125H101.973C105.102 22.3125 105.99 21.8811 105.98 20.3656C105.977 19.8713 102.536 15.1016 98.312 9.73437C91.6139 1.22412 90.4986 0 89.4379 0C88.3779 0 87.2701 1.2145 80.6406 9.63947ZM32.9297 8.57935C24.7736 12.3169 17.7341 15.7338 17.2861 16.1727C16.8047 16.6442 15.6201 19.9842 14.3875 24.3447C10.2824 38.8657 5.54441 56.4038 2.79576 67.252C0.337585 76.953 0 78.7815 0 82.3962C0 87.4167 0.483697 88.2134 4.51464 89.8322C6.09353 90.4661 9.73894 92.7375 12.9351 95.0798C22.9902 102.447 29.6342 105.996 36.9524 107.909C40.4155 108.814 42.6154 109.067 48.6641 109.257C56.5716 109.505 61.4295 109.116 69.665 107.575L74.5608 106.659L77.7338 107.969C84.5096 110.765 90.9174 112 98.6479 112C101.756 112 104.678 111.796 105.142 111.548C106.065 111.052 106.325 108.762 105.516 108.26C105.258 108.1 102.819 107.998 100.095 108.033C92.2797 108.133 85.6756 106.843 78.6371 103.84L75.0592 102.313L70.6904 103.222C60.9331 105.25 51.0433 105.882 43.3975 104.964C34.3211 103.876 26.2587 99.9174 12.9303 90.0062C10.8062 88.427 7.91096 86.7014 6.49697 86.1706L3.9254 85.2059L3.92628 82.3058C3.92758 79.1885 5.60242 72.068 11.607 49.6562C14.9087 37.3327 19.9873 19.1691 20.1787 19.0011C20.4334 18.7771 48.1533 6.16044 48.2013 6.24663C48.231 6.3 50.2534 8.95477 52.6959 12.1459C55.1379 15.337 57.1364 18.2293 57.1364 18.5727C57.1364 19.6188 47.9095 29.75 46.957 29.75C46.4885 29.75 45.1609 28.864 44.0068 27.7812C41.6437 25.564 41.1478 25.4433 39.5589 26.6971C38.3773 27.6294 33.8919 28.6798 33.1243 28.2038C32.4831 27.8066 30.5309 29.1939 30.5309 30.0471C30.5309 30.44 31.0119 31.3937 31.5999 32.1668C32.6388 33.5331 32.6942 33.9995 33.5831 48.7673C34.4401 63.0083 34.4524 64.0981 33.7798 66.1299C33.3846 67.3225 32.5813 68.8183 31.9938 69.454C30.7787 70.7691 30.7599 72.4885 31.9524 73.2371C33.5874 74.2638 36.5385 71.3291 37.5879 67.6336C38.2866 65.1727 38.8597 64.6091 42.4532 62.8517C48.2619 60.0106 53.7017 59.7162 59.6334 61.9216C64.7835 63.8365 69.5685 68.3537 70.7401 72.4063C71.3987 74.6846 71.8593 75.2498 73.0561 75.2498C74.57 75.2498 75.1727 74.2013 74.8435 72.1393C74.4998 69.9833 73.8124 68.5869 71.7803 65.9168L70.249 63.9043L72.3068 61.7929C74.8703 59.1631 77.7129 57.1896 80.7481 55.9331C82.5732 55.1779 83.9983 54.9588 87.2313 54.9356C92.3051 54.8997 96.0144 55.9589 100.713 58.7869C104.414 61.0137 105.674 60.9989 105.901 58.7252C106.018 57.5663 105.768 57.2045 104.02 55.9983C101.211 54.0593 96.9042 52.1706 93.4375 51.3572C89.4558 50.4228 83.1264 50.7132 79.5985 51.9925C76.4103 53.1488 72.0354 56.0888 69.2114 58.9737L67.1113 61.1188L64.346 59.6457C56.8983 55.6789 48.1603 55.4313 40.9184 58.9816L38.4397 60.1969L38.1898 57.1143C38.0524 55.4186 37.7462 50.4875 37.5094 46.1562C37.2726 41.825 36.9624 36.8537 36.8207 35.1094C36.5681 32.0075 36.5852 31.9371 37.5813 31.9178C38.1414 31.9069 39.1886 31.6413 39.9083 31.3272C41.1378 30.7908 41.3139 30.8433 42.8261 32.1969C44.7142 33.8875 47.0041 34.454 48.8485 33.688C49.9992 33.2097 53.9411 29.1567 59.1663 23.079C61.1215 20.8049 61.6589 19.1503 61.0888 17.1579C60.8851 16.4438 58.2931 12.688 55.3289 8.81082C50.8819 2.99425 49.7492 1.764 48.8494 1.77319C48.2497 1.77931 41.0859 4.84225 32.9297 8.57935ZM94.758 11.8313L99.8856 18.375H97.9507C95.2298 18.375 94.6461 19.1148 94.6461 22.5623V25.375H89.4117H84.1782V22.4C84.1782 20.6692 83.9595 19.2054 83.6549 18.9C83.3668 18.6113 82.2709 18.375 81.2199 18.375C80.1681 18.375 79.3731 18.2083 79.453 18.004C79.6866 17.4077 89.1721 5.30337 89.4117 5.29506C89.5319 5.29069 91.9371 8.232 94.758 11.8313ZM80.7757 31.5875C80.1472 32.2184 80.0688 38.8435 80.6794 39.8125C81.0236 40.3585 82.4934 40.4687 89.4304 40.4687C97.1804 40.4687 97.8126 40.4088 98.3881 39.6196C99.107 38.6339 99.2309 33.8958 98.5822 32.1847L98.1567 31.0625H89.7283C83.7542 31.0625 81.1475 31.2152 80.7757 31.5875ZM94.6461 35.6562C94.6461 36.2031 93.7734 36.3125 89.4117 36.3125C85.0501 36.3125 84.1782 36.2031 84.1782 35.6562C84.1782 35.1094 85.0501 35 89.4117 35C93.7734 35 94.6461 35.1094 94.6461 35.6562ZM80.7757 42.525C80.0711 43.2324 80.1136 44.8393 80.8549 45.4562C81.2714 45.8032 83.9714 45.9204 89.6342 45.8382C97.2654 45.7266 97.8484 45.6602 98.368 44.8438C98.736 44.2649 98.7957 43.6353 98.5434 42.9844C98.1672 42.0105 98.0716 42 89.7312 42C83.7542 42 81.1475 42.1527 80.7757 42.525ZM22.3311 82.7747C20.8456 84.2651 23.128 87.8677 28.2485 92.1178C34.2574 97.1048 41.6821 99.7666 49.9398 99.8943C59.1405 100.037 62.8339 99.0371 62.2167 96.5716C61.8469 95.0932 60.8834 94.8252 57.9799 95.3926C54.0575 96.1595 46.4637 95.9549 42.6805 94.9805C36.4971 93.3886 30.4275 89.5216 26.759 84.8378C24.7104 82.2222 23.4621 81.6405 22.3311 82.7747ZM91.699 84.5062C91.4004 84.8057 91.1563 85.6322 91.1563 86.343C91.1563 89.0863 95.6934 91.9662 101.968 93.2042C105.002 93.803 105.986 93.4244 105.986 91.6563C105.986 90.2548 105.251 89.7994 101.402 88.8115C97.5633 87.8267 95.6822 86.7963 94.9252 85.2663C94.3437 84.0889 92.538 83.664 91.699 84.5062Z" fill="#FFF200"/>
</g>
<defs>
<clipPath id="clip0_387_126">
<rect width="106" height="112" rx="8" fill="white"/>
</clipPath>
</defs>
</svg>
