<svg width="110" height="110" viewBox="0 0 110 110" fill="none" xmlns="http://www.w3.org/2000/svg">
<g clip-path="url(#clip0_387_179)">
<path fill-rule="evenodd" clip-rule="evenodd" d="M45.1074 0.629665C31.7983 3.04627 19.3053 10.8156 11.042 21.8144C0.134083 36.3333 -2.90346 55.1887 2.87439 72.5132C8.95538 90.746 22.8407 103.512 42.2909 108.752C47.1502 110.061 58.7761 110.423 64.4085 109.44C86.8592 105.523 104.343 88.446 109.152 65.7365C110.267 60.4724 110.285 49.5983 109.188 44.4621C108.069 39.2246 106.801 35.5012 104.531 30.7826C96.993 15.1143 81.7919 3.59913 64.7039 0.612302C59.9892 -0.211511 49.6908 -0.202372 45.1074 0.629665ZM61.6659 4.0693C73.424 5.7448 84.8587 11.6403 92.454 19.9424C98.2985 26.3323 102.795 34.6171 104.879 42.8374C105.723 46.1632 105.878 48.0512 105.882 54.999C105.886 62.2018 105.752 63.7343 104.806 67.3359C101.803 78.754 95.0459 89.0477 86.1313 95.7802C70.4751 107.604 50.3053 109.637 32.8865 101.148C18.9656 94.3634 9.29414 82.5066 5.30562 67.3359C4.36012 63.7393 4.22472 62.1922 4.22472 54.999C4.22472 47.8059 4.36012 46.2587 5.30562 42.6624C9.30007 27.4683 18.9392 15.6511 32.8865 8.84818C42.0429 4.38275 52.1206 2.70907 61.6659 4.0693ZM50.4968 9.07566C21.5697 12.0063 2.4682 40.9444 11.1477 68.6877C13.2179 75.3043 18.5759 84.4641 20.606 84.8557C21.8113 85.0883 84.6881 22.0776 84.6881 20.6369C84.6881 19.4937 82.9123 17.9302 78.7257 15.3879C70.6543 10.4866 60.0265 8.11025 50.4968 9.07566ZM65.7689 14.0661C69.4686 15.0539 76.6805 18.3542 78.7613 20.0115L79.9015 20.9188L76.8353 24.0231L73.7692 27.1274L70.8683 27.1877C63.4917 27.3412 58.131 32.7108 57.47 40.6076C57.2101 43.7183 57.2005 43.7361 54.3202 46.5973L51.4309 49.4677L45.379 43.5095C38.3106 36.5503 36.8048 35.7685 31.177 36.1373C23.4201 36.6448 18.2053 42.6167 18.6958 50.4299C18.9812 54.9753 20.1291 56.8774 26.4905 63.3459L32.003 68.9515L26.5475 74.4408L21.0923 79.9309L20.1044 78.6997C18.6547 76.8927 15.619 70.5233 14.5783 67.1073C13.2676 62.8027 12.5113 56.1413 12.8724 52.0766C14.5979 32.656 27.9397 17.4692 46.8497 13.4022C51.2043 12.4655 61.0723 12.8119 65.7689 14.0661ZM56.9507 56.7549C30.577 83.1898 25.3667 88.6176 25.4962 89.5221C25.7086 91.0071 29.2203 93.5888 34.7688 96.3388C49.6302 103.705 67.2008 102.49 81.095 93.1356C87.0337 89.1371 93.3215 81.787 96.5214 75.1028C102.606 62.3909 102.526 47.0547 96.3073 34.4983C93.9163 29.6697 90.5234 25.0713 89.3529 25.0713C88.9116 25.0713 74.5458 39.1191 56.9507 56.7549ZM92.8479 36.3314C95.7863 42.2448 97.0641 47.7999 97.0898 54.7705C97.1168 62.0231 96.0063 66.9396 92.8986 73.3389C87.2241 85.0201 77.8668 92.5836 64.6292 96.1904C60.0147 97.4468 49.6534 97.3381 44.5703 95.9783C40.7295 94.9512 33.543 91.683 31.3497 89.9668L30.21 89.0748L35.6542 83.5934L41.0983 78.1119L43.2255 80.1065C46.8092 83.4661 48.712 84.2348 53.46 84.2381C57.1412 84.2408 57.8091 84.1049 59.9563 82.9122L62.3497 81.5829L64.7431 82.9122C66.8892 84.1043 67.5598 84.2414 71.2392 84.2395C74.3863 84.2381 75.7142 84.0374 76.9381 83.3773C80.0431 81.7028 81.9032 79.8567 83.2931 77.0696L84.6881 74.2719V56.0979C84.6881 44.5906 84.5136 37.4645 84.2126 36.6709C83.7713 35.5071 83.926 35.2266 86.3777 32.7383L89.019 30.0589L89.9596 31.235C90.476 31.8815 91.7762 34.1752 92.8479 36.3314ZM65.7616 35.1306C63.5118 37.396 61.6062 39.0564 61.5278 38.8197C61.2934 38.1161 63.081 34.9872 64.4732 33.6635C65.6813 32.5153 68.3884 31.0696 69.4061 31.0289C69.6517 31.0193 68.0116 32.8648 65.7616 35.1306ZM81.041 46.3177V53.8567H73.1823H65.3235L72.8352 46.3177C76.9664 42.1712 80.5029 38.7786 80.6939 38.7786C80.8843 38.7786 81.041 42.1712 81.041 46.3177ZM35.1719 40.2435C36.6024 40.6634 38.3795 42.0972 42.6492 46.2757L48.2498 51.7572L41.2879 58.7457L34.3262 65.7341L29.6151 61.0522C22.7194 54.199 21.4885 51.6274 22.8525 46.9254C24.0082 42.9406 28.0172 39.7729 31.9807 39.7126C32.7037 39.7016 34.1397 39.9405 35.1719 40.2435ZM81.0384 64.9368C81.0371 68.7692 80.8164 72.6974 80.5483 73.6662C79.3778 77.8886 74.1861 81.2589 69.8533 80.6068C67.0809 80.1907 63.7798 77.8442 62.4897 75.3739C61.5123 73.5032 61.438 72.8147 61.438 65.6647V57.9689H71.2392H81.041L81.0384 64.9368ZM58.6001 76.3778L59.5789 78.5652L58.1533 79.4339C54.24 81.8195 49.069 80.734 45.2715 76.7316L43.9216 75.3083L50.5141 68.6857L57.1071 62.0638L57.3642 68.1264C57.5693 72.9539 57.821 74.635 58.6001 76.3778Z" fill="#FFF200"/>
</g>
<defs>
<clipPath id="clip0_387_179">
<rect width="110" height="110" fill="white"/>
</clipPath>
</defs>
</svg>
