<svg width="115" height="115" viewBox="0 0 115 115" fill="none" xmlns="http://www.w3.org/2000/svg">
<g clip-path="url(#clip0_387_181)">
<path fill-rule="evenodd" clip-rule="evenodd" d="M24.7411 9.28119C11.8983 14.3742 1.07784 18.7979 0.695039 19.1112C0.138718 19.5679 0 21.3608 0 28.1057C0 52.297 6.00015 74.4604 16.9642 90.7676C20.6322 96.2231 29.1917 104.832 34.2072 108.11C38.6254 110.997 45.9615 114.62 48.0756 114.96C51.879 115.569 63.2413 109.179 70.6232 102.279C73.3177 99.7604 75.6825 97.9156 76.0429 98.0521C76.3941 98.1851 77.1601 99.8879 77.7456 101.836C78.3303 103.783 79.136 105.838 79.5354 106.402C81.1851 108.73 86.0207 108.608 87.9457 106.19C88.7465 105.183 88.934 104.252 88.934 101.278V97.6087L91.625 96.5065C93.1047 95.9003 95.3838 94.6783 96.6885 93.7908C97.9932 92.9034 99.2527 92.1781 99.4875 92.1781C99.7224 92.1781 100.87 93.0045 102.037 94.0146C105.924 97.3801 108.126 97.8151 110.647 95.7181C111.871 94.7004 112.134 94.1282 112.134 92.4842C112.134 90.8604 111.728 89.9536 109.963 87.63C106.962 83.6805 106.599 82.4072 107.493 78.9621C108.667 74.4369 108.885 71.5397 108.321 67.9471C108.03 66.0859 107.678 64.2739 107.542 63.92C107.388 63.5191 108.4 62.5542 110.222 61.3651C114.803 58.3741 116.117 55.4495 114.047 52.8483C112.48 50.8801 110.524 50.8037 106.139 52.5392L102.327 54.0479L100.143 51.89L97.9605 49.7322L99.7872 44.6129C101.459 39.9245 101.565 39.3355 101.042 37.6105C100.686 36.4377 99.981 35.4492 99.1739 34.9916L97.8755 34.2564L98.0337 28.1922C98.1201 24.8563 97.9988 21.3962 97.7653 20.5028L97.3388 18.8786L73.4467 9.42834C60.3065 4.23072 49.226 -0.0119179 48.8238 2.51531e-05C48.4212 0.0119682 37.5843 4.18867 24.7411 9.28119ZM26.2655 12.6897L3.95563 21.5366L3.77052 24.0141C3.48292 27.8559 4.21905 40.2962 5.07698 46.0996C9.71555 77.4601 22.7685 98.9083 43.3041 108.911C45.9871 110.218 48.4899 111.287 48.8659 111.287C49.2415 111.287 51.7427 110.223 54.4243 108.923C59.6907 106.369 65.6725 102.2 69.0698 98.715L71.1975 96.5321L69.9235 96.2162C68.4802 95.858 65.7885 97.2214 62.3761 100.039C60.1339 101.891 57.5268 102.305 55.8298 101.078C55.0439 100.511 54.6012 100.572 52.475 101.551C51.1279 102.171 49.4976 102.68 48.8523 102.683C46.9741 102.691 40.0305 99.1175 35.7969 95.9647C20.4142 84.5077 11.6562 63.1938 10.7814 35.0848C10.5503 27.6605 10.6208 25.9025 11.1699 25.4553C11.9249 24.8406 48.0544 10.4879 48.8475 10.4879C49.7456 10.4879 85.7691 24.8764 86.418 25.494C87.3296 26.3626 87.6181 31.8707 87.0961 38.4345C86.8452 41.5875 86.7156 44.2512 86.8083 44.3545C87.0675 44.6425 88.7263 42.6117 91.4494 38.6734L93.9264 35.0905L94.1467 28.39L94.3655 21.689L72.1956 13.0064C60.002 8.23067 49.6992 4.21495 49.3004 4.08262C48.9016 3.95029 38.536 7.82367 26.2655 12.6897ZM31.544 21.1626L14.5122 27.9247L14.5064 32.7707C14.4986 38.8692 15.201 46.0031 16.4746 52.7662C20.6376 74.8699 29.9877 89.5885 44.5477 96.9575L48.6218 99.0192L50.9563 98.138C52.7244 97.4701 53.4475 96.8861 53.9361 95.7306C54.2909 94.8909 55.1048 93.5871 55.7443 92.8327C56.3837 92.079 57.461 90.6519 58.1387 89.6619L59.3703 87.8621L57.7095 85.1367C56.796 83.6376 55.6882 81.2814 55.2479 79.9008C54.46 77.4303 54.4016 77.3756 51.5116 76.4376C49.8968 75.9132 47.631 75.3402 46.4762 75.1643C42.4003 74.5422 40.3326 71.4711 41.7434 68.1344C42.7014 65.8672 44.6386 64.9609 48.672 64.8917C54.1207 64.798 54.5591 64.595 55.7887 61.604C56.3828 60.1589 57.4292 58.0999 58.1135 57.0279L59.3582 55.0797L58.5225 52.64C58.0628 51.2981 57.1416 49.38 56.475 48.3778C54.8965 46.0035 54.6012 44.7428 55.157 42.7531C55.823 40.3683 58.0889 38.6696 60.5752 38.6901C62.9208 38.7102 64.2867 39.3642 65.6996 41.1456C66.2574 41.8483 67.7968 43.2093 69.1211 44.17L71.5293 45.9171L74.8894 45.1613C76.7378 44.7462 79.2106 44.406 80.3843 44.406H82.5191L82.8265 42.1894C82.9958 40.9708 83.1339 37.2498 83.1339 33.9211V27.8688L66.5797 21.3441C57.4746 17.7554 49.6992 14.7253 49.3004 14.6101C48.9016 14.495 40.9111 17.4435 31.544 21.1626ZM19.0618 32.6073C18.4848 34.093 19.0778 38.3275 19.9377 38.8607C21.9285 40.0951 23.2621 37.3162 22.3534 33.8264C22.0262 32.5705 21.654 32.1917 20.6322 32.0727C19.8313 31.9796 19.2252 32.1859 19.0618 32.6073ZM94.99 40.3645C94.2826 41.5574 93.0371 43.2843 92.2209 44.2021C91.4062 45.1203 90.8221 45.9386 90.9239 46.0207C91.3274 46.346 94.4115 47.7468 94.4742 47.6326C95.2813 46.1583 97.6071 39.0164 97.3918 38.6724C96.8404 37.791 96.2829 38.1837 94.99 40.3645ZM19.8086 42.7436C18.1256 44.7481 23.4206 66.8063 26.8131 71.9235C27.6802 73.2315 29.0771 73.4123 29.9829 72.3336C30.4962 71.7226 30.3019 70.8767 28.8373 67.3366C26.628 61.9981 24.9697 55.7385 23.8957 48.683C23.4375 45.6739 22.8493 42.9433 22.5888 42.6146C21.9416 41.7986 20.5476 41.8636 19.8086 42.7436ZM58.9735 43.4391C58.5645 44.1944 58.7525 44.8914 59.9179 46.9317C61.9107 50.422 63.0891 53.9939 64.0098 59.3377C64.847 64.1952 64.7237 65.2232 63.2495 65.6861C61.8952 66.1108 61.0735 65.2279 60.6647 62.9086L60.308 60.8874L59.3519 62.9759C57.8197 66.3229 57.2736 70.7132 57.8971 74.669C58.7772 80.2582 61.3839 85.303 61.3839 81.4179C61.3839 79.6805 63.0359 79.0015 64.2775 80.2291C65.0833 81.0251 65.2037 81.5655 64.947 83.2254C64.4985 86.1232 62.3679 90.5182 59.7642 93.9155C58.5283 95.5283 57.5171 97.0863 57.5171 97.3787C57.5171 98.379 59.0547 97.9114 60.9024 96.3478C63.0769 94.5085 68.705 91.6855 72.5957 90.4821C74.8615 89.7817 75.4825 89.7395 76.1 90.2459C77.1427 91.1015 77.0375 92.4725 75.8672 93.2823C74.9166 93.9405 74.9347 93.973 76.4116 94.2647C81.8786 95.3461 89.0755 94.1109 93.4434 91.3426L95.4591 90.0644L93.0427 89.5455C90.9532 89.0973 90.6054 88.8562 90.4757 87.7686C90.0025 83.7927 98.2441 85.9216 105.242 91.5823C106.496 92.5972 107.585 93.1278 108.051 92.9512C108.469 92.7925 108.709 92.4995 108.582 92.3007C108.455 92.1018 107.386 90.5175 106.204 88.7793C103.833 85.2912 100.889 77.8806 101.115 75.9658C101.238 74.9274 101.5 74.7424 102.85 74.7472C104.822 74.7542 105.132 73.8446 104.656 69.451C104.268 65.8629 103.989 65.8924 101.461 69.787C100.175 71.7676 99.7064 72.1403 98.6547 72.0198C94.7056 71.5667 99.353 64.6117 107.752 58.4071C112.675 54.7688 112.326 53.9595 106.855 56.3328C102.951 58.0263 97.4991 58.9502 93.9773 58.5155C91.1567 58.1673 90.229 57.444 90.4674 55.7782C90.6186 54.7257 90.7866 54.6832 94.2505 54.8127L97.8755 54.9484L96.1839 53.5004C92.667 50.4893 86.5295 48.244 81.788 48.2335C79.3486 48.2283 79.2573 48.2727 79.7724 49.2229C80.2038 50.0197 80.139 50.4058 79.449 51.1596C78.7555 51.9168 78.2056 52.0438 76.6318 51.8083C73.3888 51.3239 68.0732 48.4686 64.6614 45.3791C61.334 42.3652 59.8323 41.8531 58.9735 43.4391ZM48.979 68.6446C44.6193 68.8911 43.4443 70.7894 47.2631 71.4157C48.2506 71.5778 50.0201 72.0156 51.1951 72.3883C52.3696 72.7617 53.3749 73.0132 53.4286 72.9481C53.4827 72.8837 53.6766 71.8092 53.8597 70.5615C54.1773 68.3976 54.141 68.2964 53.0758 68.3843C52.4615 68.4349 50.618 68.5519 48.979 68.6446ZM80.8805 99.0746C81.0269 99.4528 81.3991 100.689 81.7072 101.822C82.8634 106.075 85.4492 105.352 85.1425 100.861L84.9738 98.3887H82.7937C81.0966 98.3887 80.6728 98.5405 80.8805 99.0746Z" fill="#FFF200"/>
</g>
<defs>
<clipPath id="clip0_387_181">
<rect width="115" height="115" fill="white"/>
</clipPath>
</defs>
</svg>
