<svg width="61" height="104" viewBox="0 0 61 104" fill="none" xmlns="http://www.w3.org/2000/svg">
<g clip-path="url(#clip0_204_152)">
<path d="M20.1548 60.7099L20.296 59.947L19.5277 59.926L10.3875 59.6766C7.88044 59.6083 5.53506 59.5009 3.77741 59.3832C2.89757 59.3244 2.17128 59.2633 1.64792 59.2041C1.3851 59.1743 1.18267 59.146 1.04126 59.1203C1.00475 59.1136 0.974877 59.1076 0.950949 59.1024C0.919465 59.0598 0.85918 58.966 0.796593 58.7931C0.711573 58.5583 0.656942 58.2695 0.655762 57.9957L0.655991 57.9979C0.655991 57.9979 0.662721 57.9494 0.691634 57.8203C0.722934 57.6806 0.771091 57.4897 0.836532 57.2474C0.967111 56.7641 1.16025 56.0992 1.4085 55.2758C1.9046 53.6301 2.61541 51.3685 3.47261 48.6958C5.18671 43.3512 7.48263 36.3734 9.80869 29.4134C12.1348 22.4534 14.49 15.5137 16.3228 10.2452C17.2394 7.61046 18.0243 5.3965 18.6092 3.80785C18.9018 3.01282 19.1427 2.37907 19.324 1.92912C19.4149 1.70343 19.4883 1.5303 19.5442 1.40866C19.5722 1.34751 19.593 1.30571 19.6069 1.27966L19.6077 1.27834C19.7501 1.11891 20.0289 0.916563 21.6984 0.802329C23.4216 0.684411 26.4152 0.662598 31.8384 0.662598C35.5022 0.662598 38.5874 0.712796 40.8258 0.801958C41.9461 0.846585 42.8467 0.900685 43.4988 0.962243C43.8257 0.993099 44.0808 1.02498 44.2657 1.0567C44.4373 1.08614 44.4989 1.10617 44.4989 1.10617C44.6249 1.17821 44.7771 1.33004 44.9018 1.55259C45.0285 1.77868 45.0939 2.01982 45.0939 2.21376C45.0939 2.21035 45.0933 2.21396 45.0913 2.22592C45.0853 2.26083 45.0672 2.36695 45.0168 2.57777C44.9573 2.82696 44.8678 3.16403 44.7501 3.58196C44.5152 4.41656 44.1741 5.55237 43.7513 6.90949C42.9062 9.62263 41.7396 13.2059 40.4557 17.0031C39.1704 20.8047 38.0017 24.2824 37.1543 26.8228C36.7306 28.093 36.387 29.1296 36.1491 29.8557C36.0302 30.2185 35.9373 30.5054 35.8738 30.7057C35.8422 30.8053 35.8169 30.8864 35.7993 30.9457C35.7906 30.9747 35.7824 31.003 35.7759 31.0275C35.7746 31.0323 35.7731 31.0379 35.7715 31.0442C35.7692 31.0532 35.7668 31.0635 35.7643 31.0743C35.7624 31.0833 35.7592 31.0982 35.7563 31.1162C35.7545 31.1274 35.7471 31.172 35.7471 31.2277C35.7471 31.5915 36.0151 31.7657 36.0516 31.7894C36.1252 31.8372 36.1924 31.8599 36.217 31.8679C36.2753 31.8869 36.3297 31.8964 36.3578 31.9009C36.4234 31.9115 36.5024 31.9194 36.5824 31.9259C36.7481 31.9392 36.9828 31.9514 37.2731 31.9628C37.8566 31.9856 38.6956 32.0061 39.7255 32.0232C41.7867 32.0574 44.6272 32.0786 47.75 32.0786C51.1854 32.0786 54.1058 32.1293 56.2359 32.2186C57.302 32.2634 58.1625 32.3175 58.7875 32.3788C59.1008 32.4096 59.3457 32.4413 59.5235 32.4727C59.6885 32.5019 59.748 32.5216 59.748 32.5216C60.0295 32.681 60.309 33.1268 60.3409 33.5931C60.3278 33.6229 60.3094 33.6626 60.2843 33.7135C60.2079 33.8685 60.0895 34.0888 59.9277 34.375C59.6056 34.9451 59.1292 35.7457 58.5179 36.7472C57.2962 38.7485 55.5475 41.5323 53.4425 44.8374C49.233 51.4465 43.6061 60.1293 37.9385 68.7833C32.2709 77.4378 26.5642 86.0605 22.1952 92.5502C20.0103 95.7954 18.1619 98.5047 16.8207 100.416C16.1497 101.373 15.609 102.126 15.2182 102.644C15.0221 102.905 14.8693 103.099 14.7595 103.228C14.7308 103.262 14.707 103.289 14.6878 103.31C14.4275 103.374 14.0444 103.332 13.6402 103.14C13.2303 102.946 12.9276 102.657 12.7916 102.382C12.7949 102.307 12.8039 102.196 12.8197 102.043C12.852 101.733 12.9089 101.292 12.9894 100.728C13.1499 99.6037 13.4003 98.0185 13.7215 96.0869C14.3638 92.2257 15.2873 86.9952 16.3368 81.3282L20.1548 60.7099ZM23.3421 56.456C23.4685 56.5271 23.6232 56.6796 23.75 56.9001C23.8782 57.1232 23.9407 57.3521 23.9407 57.5234C23.9407 57.5234 23.9395 57.5564 23.9295 57.6484C23.9204 57.7314 23.9065 57.8421 23.8874 57.9808C23.8493 58.2577 23.7925 58.633 23.7188 59.0969C23.5713 60.0242 23.3576 61.2939 23.0934 62.8156C22.5652 65.8583 21.8363 69.9001 21.0343 74.2065C20.2317 78.5162 19.5167 82.4497 19.0111 85.3159C18.7584 86.7488 18.5577 87.9166 18.4245 88.732C18.3579 89.1394 18.3076 89.4627 18.276 89.6886C18.2603 89.8005 18.2482 89.8959 18.2411 89.9688C18.2378 90.0026 18.2343 90.0456 18.2334 90.0873C18.2331 90.1059 18.2327 90.1437 18.2374 90.1894C18.2397 90.2106 18.2451 90.2536 18.2596 90.3053C18.2687 90.3378 18.3066 90.4729 18.4275 90.5954C18.5777 90.7094 18.8857 90.7902 19.0184 90.7783C19.0916 90.7597 19.2018 90.7127 19.2405 90.6902C19.3032 90.6511 19.3461 90.6093 19.3578 90.5981C19.39 90.5669 19.4165 90.5345 19.4293 90.5193C19.4602 90.4815 19.4962 90.4338 19.5331 90.3835C19.6093 90.2801 19.7161 90.1284 19.8494 89.937C20.1171 89.5515 20.5035 88.9838 20.9906 88.2624C21.9652 86.8183 23.3485 84.7476 25.0031 82.2589C28.3129 77.2814 32.7113 70.6274 37.1048 63.9568C41.4983 57.2863 45.8874 50.5988 49.1783 45.5548C50.8237 43.0329 52.1952 40.9209 53.1556 39.427C53.6356 38.6804 54.0143 38.0862 54.2734 37.6717C54.4026 37.4651 54.5044 37.2995 54.5748 37.1808C54.6095 37.1224 54.6402 37.0692 54.6637 37.0254C54.6749 37.0047 54.6893 36.9769 54.7027 36.9474C54.7092 36.9333 54.72 36.9085 54.7305 36.8779C54.7337 36.8689 54.7686 36.7752 54.7686 36.6532C54.7686 36.3905 54.6239 36.2243 54.5517 36.1577C54.4774 36.0892 54.4045 36.0531 54.3714 36.0378C54.3006 36.0051 54.2349 35.9891 54.2036 35.9819C54.1306 35.965 54.0471 35.9535 53.9701 35.9447C53.8087 35.9262 53.5841 35.9097 53.3116 35.8946C52.7625 35.8641 51.9752 35.8369 51.0116 35.8141C49.0821 35.7686 46.4245 35.7404 43.5037 35.7404C38.2461 35.7404 35.2684 35.6835 33.5326 35.447C32.664 35.3287 32.1819 35.1738 31.8977 35.0073C31.6856 34.883 31.5668 34.7433 31.475 34.5402C31.4811 34.4955 31.491 34.4343 31.5065 34.3543C31.5492 34.1321 31.6235 33.8151 31.7291 33.4074C31.9396 32.5948 32.2644 31.4605 32.6801 30.0841C33.5107 27.3334 34.6972 23.6389 36.0385 19.666L40.923 5.20065L41.2188 4.32442H40.3021H31.2746H22.2476H21.7806L21.6277 4.77019L19.3634 11.3775C18.0059 15.3381 14.362 26.1929 11.0583 36.0807C9.40629 41.0252 7.83892 45.729 6.68451 49.2096C6.10738 50.9498 5.63324 52.3849 5.30329 53.3917C5.1384 53.8948 5.00912 54.2922 4.92091 54.5675C4.87692 54.7048 4.84245 54.8139 4.81869 54.8913C4.80698 54.9295 4.79676 54.9636 4.78903 54.9909C4.78534 55.004 4.78071 55.0207 4.7765 55.038C4.77449 55.0462 4.7711 55.0605 4.7678 55.0776C4.7674 55.0797 4.7552 55.137 4.7552 55.2081C4.7552 55.5705 5.02166 55.7444 5.0579 55.7681C5.13101 55.8158 5.1973 55.8381 5.22078 55.8458C5.27701 55.8641 5.32796 55.8729 5.35147 55.8767C5.40784 55.8859 5.47313 55.8923 5.53508 55.8973C5.66454 55.9078 5.84589 55.9173 6.06752 55.9259C6.51368 55.9434 7.15401 55.9591 7.93875 55.9722C9.5096 55.9983 11.6737 56.0146 14.0525 56.0146C16.5524 56.0146 18.8004 56.0686 20.4877 56.1593C21.3324 56.2048 22.0289 56.259 22.5431 56.3192C22.8008 56.3494 23.0038 56.38 23.1525 56.4098C23.2912 56.4376 23.3421 56.456 23.3421 56.456Z" fill="#FFF200"/>
<path d="M16.3368 81.3282C15.2873 86.9952 14.3638 92.2257 13.7215 96.0869C13.4003 98.0185 13.1499 99.6037 12.9894 100.728C12.9089 101.292 12.852 101.733 12.8197 102.043C12.8039 102.196 12.7949 102.307 12.7916 102.382C12.9276 102.657 13.2303 102.946 13.6402 103.14C14.0444 103.332 14.4275 103.374 14.6878 103.31C14.707 103.289 14.7308 103.262 14.7595 103.228C14.8693 103.099 15.0221 102.905 15.2182 102.644C15.609 102.126 16.1497 101.373 16.8207 100.416C18.1619 98.5047 20.0103 95.7954 22.1952 92.5502C26.5642 86.0605 32.2709 77.4378 37.9385 68.7833C43.6061 60.1293 49.233 51.4465 53.4425 44.8374C55.5475 41.5323 57.2962 38.7485 58.5179 36.7472C59.1292 35.7457 59.6056 34.9451 59.9277 34.375C60.0895 34.0888 60.2079 33.8685 60.2843 33.7135C60.3094 33.6626 60.3278 33.6229 60.3409 33.5931C60.309 33.1268 60.0295 32.681 59.748 32.5216C59.748 32.5216 59.6885 32.5019 59.5235 32.4727C59.3457 32.4413 59.1008 32.4096 58.7875 32.3788C58.1625 32.3175 57.302 32.2634 56.2359 32.2186C54.1058 32.1293 51.1854 32.0786 47.75 32.0786C44.6272 32.0786 41.7867 32.0574 39.7255 32.0232C38.6956 32.0061 37.8566 31.9856 37.2731 31.9628C36.9828 31.9514 36.7481 31.9392 36.5824 31.9259C36.5024 31.9194 36.4234 31.9115 36.3578 31.9009C36.3297 31.8964 36.2753 31.8869 36.217 31.8679C36.1924 31.8599 36.1252 31.8372 36.0516 31.7894C36.0151 31.7657 35.7471 31.5915 35.7471 31.2277C35.7471 31.172 35.7545 31.1274 35.7563 31.1162C35.7592 31.0982 35.7624 31.0833 35.7643 31.0743C35.7668 31.0635 35.7692 31.0532 35.7715 31.0442C35.7731 31.0379 35.7746 31.0323 35.7759 31.0275C35.7824 31.003 35.7906 30.9747 35.7993 30.9457C35.8169 30.8864 35.8422 30.8053 35.8738 30.7057C35.9373 30.5054 36.0302 30.2185 36.1491 29.8557C36.387 29.1296 36.7306 28.093 37.1543 26.8228C38.0017 24.2824 39.1704 20.8047 40.4557 17.0031C41.7396 13.2059 42.9062 9.62263 43.7513 6.90949C44.1741 5.55237 44.5152 4.41656 44.7501 3.58196C44.8678 3.16403 44.9573 2.82696 45.0168 2.57777C45.0672 2.36695 45.0853 2.26083 45.0913 2.22592C45.0933 2.21396 45.0939 2.21035 45.0939 2.21376C45.0939 2.01982 45.0285 1.77868 44.9018 1.55259C44.7771 1.33004 44.6249 1.17821 44.4989 1.10617C44.4989 1.10617 44.4373 1.08614 44.2657 1.0567C44.0808 1.02498 43.8257 0.993099 43.4988 0.962243C42.8467 0.900685 41.9461 0.846585 40.8258 0.801958C38.5874 0.712796 35.5022 0.662598 31.8384 0.662598C26.4152 0.662598 23.4216 0.684411 21.6984 0.802329C20.0289 0.916563 19.7501 1.11891 19.6077 1.27834L19.6069 1.27966C19.593 1.30571 19.5722 1.34751 19.5442 1.40866C19.4883 1.5303 19.4149 1.70343 19.324 1.92912C19.1427 2.37907 18.9018 3.01282 18.6092 3.80785C18.0243 5.3965 17.2394 7.61046 16.3228 10.2452C14.49 15.5137 12.1348 22.4534 9.80869 29.4134C7.48263 36.3734 5.18671 43.3512 3.47261 48.6958C2.61541 51.3685 1.9046 53.6301 1.4085 55.2758C1.16025 56.0992 0.967111 56.7641 0.836532 57.2474C0.771091 57.4897 0.722934 57.6806 0.691634 57.8203C0.662721 57.9494 0.655991 57.9979 0.655991 57.9979L0.655762 57.9957C0.656942 58.2695 0.711573 58.5583 0.796593 58.7931C0.85918 58.966 0.919465 59.0598 0.950949 59.1024C0.974877 59.1076 1.00475 59.1136 1.04126 59.1203C1.18267 59.146 1.3851 59.1743 1.64792 59.2041C2.17128 59.2633 2.89757 59.3244 3.77741 59.3832C5.53506 59.5009 7.88044 59.6083 10.3875 59.6766L19.5277 59.926L20.296 59.947L20.1548 60.7099L16.3368 81.3282ZM16.3368 81.3282L15.692 81.2063M0.880537 59.0841C0.880537 59.0841 0.883488 59.085 0.88846 59.0868M19.6178 1.26037C19.6178 1.26037 19.6173 1.26137 19.6162 1.26311M23.3421 56.456C23.4685 56.5271 23.6232 56.6796 23.75 56.9001C23.8782 57.1232 23.9407 57.3521 23.9407 57.5234C23.9407 57.5234 23.9395 57.5564 23.9295 57.6484C23.9204 57.7314 23.9065 57.8421 23.8874 57.9808C23.8493 58.2577 23.7925 58.633 23.7188 59.0969C23.5713 60.0242 23.3576 61.2939 23.0934 62.8156C22.5652 65.8583 21.8363 69.9001 21.0343 74.2065C20.2317 78.5162 19.5167 82.4497 19.0111 85.3159C18.7584 86.7488 18.5577 87.9166 18.4245 88.732C18.3579 89.1394 18.3076 89.4627 18.276 89.6886C18.2603 89.8005 18.2482 89.8959 18.2411 89.9688C18.2378 90.0026 18.2343 90.0456 18.2334 90.0873C18.2331 90.1059 18.2327 90.1437 18.2374 90.1894C18.2397 90.2106 18.2451 90.2536 18.2596 90.3053C18.2687 90.3378 18.3066 90.4729 18.4275 90.5954C18.5777 90.7094 18.8857 90.7902 19.0184 90.7783C19.0916 90.7597 19.2018 90.7127 19.2405 90.6902C19.3032 90.6511 19.3461 90.6093 19.3578 90.5981C19.39 90.5669 19.4165 90.5345 19.4293 90.5193C19.4602 90.4815 19.4962 90.4338 19.5331 90.3835C19.6093 90.2801 19.7161 90.1284 19.8494 89.937C20.1171 89.5515 20.5035 88.9838 20.9906 88.2624C21.9652 86.8183 23.3485 84.7476 25.0031 82.2589C28.3129 77.2814 32.7113 70.6274 37.1048 63.9568C41.4983 57.2863 45.8874 50.5988 49.1783 45.5548C50.8237 43.0329 52.1952 40.9209 53.1556 39.427C53.6356 38.6804 54.0143 38.0862 54.2734 37.6717C54.4026 37.4651 54.5044 37.2995 54.5748 37.1808C54.6095 37.1224 54.6402 37.0692 54.6637 37.0254C54.6749 37.0047 54.6893 36.9769 54.7027 36.9474C54.7092 36.9333 54.72 36.9085 54.7305 36.8779C54.7337 36.8689 54.7686 36.7752 54.7686 36.6532C54.7686 36.3905 54.6239 36.2243 54.5517 36.1577C54.4774 36.0892 54.4045 36.0531 54.3714 36.0378C54.3006 36.0051 54.2349 35.9891 54.2036 35.9819C54.1306 35.965 54.0471 35.9535 53.9701 35.9447C53.8087 35.9262 53.5841 35.9097 53.3116 35.8946C52.7625 35.8641 51.9752 35.8369 51.0116 35.8141C49.0821 35.7686 46.4245 35.7404 43.5037 35.7404C38.2461 35.7404 35.2684 35.6835 33.5326 35.447C32.664 35.3287 32.1819 35.1738 31.8977 35.0073C31.6856 34.883 31.5668 34.7433 31.475 34.5402C31.4811 34.4955 31.491 34.4343 31.5065 34.3543C31.5492 34.1321 31.6235 33.8151 31.7291 33.4074C31.9396 32.5948 32.2644 31.4605 32.6801 30.0841C33.5107 27.3334 34.6972 23.6389 36.0385 19.666L40.923 5.20065L41.2188 4.32442H40.3021H31.2746H22.2476H21.7806L21.6277 4.77019L19.3634 11.3775C18.0059 15.3381 14.362 26.1929 11.0583 36.0807C9.40629 41.0252 7.83892 45.729 6.68451 49.2096C6.10738 50.9498 5.63324 52.3849 5.30329 53.3917C5.1384 53.8948 5.00912 54.2922 4.92091 54.5675C4.87692 54.7048 4.84245 54.8139 4.81869 54.8913C4.80698 54.9295 4.79676 54.9636 4.78903 54.9909C4.78534 55.004 4.78071 55.0207 4.7765 55.038C4.77449 55.0462 4.7711 55.0605 4.7678 55.0776C4.7674 55.0797 4.7552 55.137 4.7552 55.2081C4.7552 55.5705 5.02166 55.7444 5.0579 55.7681C5.13101 55.8158 5.1973 55.8381 5.22078 55.8458C5.27701 55.8641 5.32796 55.8729 5.35147 55.8767C5.40784 55.8859 5.47313 55.8923 5.53508 55.8973C5.66454 55.9078 5.84589 55.9173 6.06752 55.9259C6.51368 55.9434 7.15401 55.9591 7.93875 55.9722C9.5096 55.9983 11.6737 56.0146 14.0525 56.0146C16.5524 56.0146 18.8004 56.0686 20.4877 56.1593C21.3324 56.2048 22.0289 56.259 22.5431 56.3192C22.8008 56.3494 23.0038 56.38 23.1525 56.4098C23.2912 56.4376 23.3421 56.456 23.3421 56.456Z" stroke="#FFF200" stroke-width="2"/>
</g>
<defs>
<clipPath id="clip0_204_152">
<rect width="61" height="104" fill="white"/>
</clipPath>
</defs>
</svg>
