<svg width="1837" height="315" viewBox="0 0 1837 315" fill="none" xmlns="http://www.w3.org/2000/svg">
<path d="M0.175 314.52V229.4H9.455C13.7217 227.053 17.775 223.96 21.615 220.12C25.6683 216.067 29.295 210.733 32.495 204.12C35.695 197.507 38.575 189.08 41.135 178.84C43.9083 168.387 46.255 155.693 48.175 140.76C50.3083 125.827 51.9083 108.12 52.975 87.64L58.735 3.79998H173.295V229.4H200.495V314.52H167.535L164.655 263H36.975L33.775 314.52H0.175ZM53.615 229.4H128.495V37.72H95.855L92.975 95C92.1217 115.48 90.735 132.867 88.815 147.16C86.895 161.24 84.655 172.973 82.095 182.36C79.535 191.533 76.655 199 73.455 204.76C70.4683 210.52 67.2683 215.213 63.855 218.84C60.4417 222.467 57.0283 225.987 53.615 229.4ZM208.538 263L265.818 131.8L212.058 3.79998H256.538L303.578 127H305.818V3.79998H343.898V127H346.458L393.178 3.79998H437.978L384.218 131.8L441.498 263H397.978L346.778 135.32H343.898V263H305.818V135.32H303.258L252.058 263H208.538ZM463.035 263V3.79998H501.755V167.32L572.795 3.79998H604.475V263H565.435V96.92L494.075 263H463.035ZM644.91 263V3.79998H691.95V112.28H744.75V3.79998H792.11V263H744.75V145.88H691.95V263H644.91ZM857.69 263V38.68H816.41V3.79998H945.69V38.68H905.05V263H857.69ZM969.27 263V3.79998H1045.43C1061 3.79998 1073.59 6.67998 1083.19 12.44C1093 18.2 1100.15 26.6267 1104.63 37.72C1109.32 48.6 1111.67 61.8266 1111.67 77.4C1111.67 94.2533 1108.79 107.907 1103.03 118.36C1097.27 128.6 1089.16 136.067 1078.71 140.76C1068.47 145.453 1056.31 147.8 1042.23 147.8H1016.63V263H969.27ZM1016.63 114.52H1034.55C1043.08 114.52 1049.7 113.347 1054.39 111C1059.3 108.44 1062.6 104.493 1064.31 99.16C1066.23 93.6133 1067.19 86.2533 1067.19 77.08C1067.19 67.6933 1066.44 60.12 1064.95 54.36C1063.67 48.3867 1060.68 44.0133 1055.99 41.24C1051.51 38.4667 1044.36 37.08 1034.55 37.08H1016.63V114.52ZM1208.42 266.52C1190.07 266.52 1175.46 263.107 1164.58 256.28C1153.7 249.453 1145.91 239.64 1141.22 226.84C1136.53 214.04 1134.18 198.893 1134.18 181.4V84.44C1134.18 66.9467 1136.53 52.0133 1141.22 39.64C1145.91 27.0533 1153.7 17.4533 1164.58 10.84C1175.46 4.22665 1190.07 0.919979 1208.42 0.919979C1227.19 0.919979 1241.91 4.22665 1252.58 10.84C1263.46 17.4533 1271.25 27.0533 1275.94 39.64C1280.85 52.0133 1283.3 66.9467 1283.3 84.44V181.72C1283.3 199 1280.85 214.04 1275.94 226.84C1271.25 239.427 1263.46 249.24 1252.58 256.28C1241.91 263.107 1227.19 266.52 1208.42 266.52ZM1208.42 231.64C1216.31 231.64 1222.07 229.933 1225.7 226.52C1229.54 223.107 1232.1 218.413 1233.38 212.44C1234.66 206.467 1235.3 199.96 1235.3 192.92V73.56C1235.3 66.3067 1234.66 59.8 1233.38 54.04C1232.1 48.28 1229.54 43.8 1225.7 40.6C1222.07 37.1867 1216.31 35.48 1208.42 35.48C1200.95 35.48 1195.3 37.1867 1191.46 40.6C1187.62 43.8 1185.06 48.28 1183.78 54.04C1182.5 59.8 1181.86 66.3067 1181.86 73.56V192.92C1181.86 199.96 1182.39 206.467 1183.46 212.44C1184.74 218.413 1187.3 223.107 1191.14 226.52C1194.98 229.933 1200.74 231.64 1208.42 231.64ZM1318.33 263V3.79998H1467.77V263H1421.05V37.4H1365.05V263H1318.33ZM1507.41 263V3.79998H1546.13V167.32L1617.17 3.79998H1648.85V263H1609.81V96.92L1538.45 263H1507.41ZM1689.29 263V3.79998H1736.33V112.28H1789.13V3.79998H1836.49V263H1789.13V145.88H1736.33V263H1689.29Z" fill="white" fill-opacity="0.02"/>
</svg>
