<svg width="32" height="32" viewBox="0 0 32 32" fill="none" xmlns="http://www.w3.org/2000/svg">
<path d="M15.9998 26.6665C10.1198 26.6665 5.33317 21.8798 5.33317 15.9998C5.33317 10.1198 10.1198 5.33317 15.9998 5.33317C21.8798 5.33317 26.6665 10.1198 26.6665 15.9998C26.6665 21.8798 21.8798 26.6665 15.9998 26.6665ZM15.9998 2.6665C8.6265 2.6665 2.6665 8.6265 2.6665 15.9998C2.6665 23.3732 8.6265 29.3332 15.9998 29.3332C23.3732 29.3332 29.3332 23.3732 29.3332 15.9998C29.3332 8.6265 23.3732 2.6665 15.9998 2.6665ZM19.4532 10.6665L15.9998 14.1198L12.5465 10.6665L10.6665 12.5465L14.1198 15.9998L10.6665 19.4532L12.5465 21.3332L15.9998 17.8798L19.4532 21.3332L21.3332 19.4532L17.8798 15.9998L21.3332 12.5465L19.4532 10.6665Z" fill="#163C99"/>
</svg>
