<svg width="1087" height="1101" viewBox="0 0 1087 1101" fill="none" xmlns="http://www.w3.org/2000/svg">
<g clip-path="url(#clip0_216_63)">
<path d="M423.815 86.195C390.625 119.98 388.699 136.575 371.954 183.078C377.897 203.247 383.341 220.431 392.165 238.505C403.561 239.129 415.949 239.542 426.062 239.454C412.562 216.927 407.777 196.819 415.605 161.613C425.105 203.651 443.988 227.8 462.45 237.375C469.149 236.639 475.612 235.796 481.84 234.846C468.02 212.035 463.073 191.881 470.983 156.312C479.593 194.423 495.92 217.827 512.651 229.002C522.943 226.701 533.161 224.053 543.422 221.204C531.232 199.82 527.16 179.955 534.65 146.269C542.067 179.097 555.213 201.019 569.408 213.61C579.625 210.461 589.826 207.264 600.013 204.018C598.499 191.258 599.093 177.124 602.363 161.836L606.524 142.416L645.415 150.714L641.262 170.142C633.228 207.674 644.187 224.031 657.403 233.401C670.615 242.766 689.859 241.036 692.82 239.138L709.558 228.413L731.033 261.845C722.512 267.009 713.579 273.85 704.914 277.425C746.119 338.504 776.018 413.063 759.609 483.866C754.384 504.773 746.287 524.124 733.726 539.004C761.841 565.772 780.598 587.61 802.288 615.137C793.732 609.63 785.12 604.208 776.456 598.873C751.275 583.404 723.802 567.507 699.172 555.175C663.795 537.963 629.87 515.001 593.718 509.886C543.892 503.339 491.49 520.472 431.726 556.36C449.119 575.603 461.071 590.508 476.603 609.958C461.182 600.385 444.231 589.943 425.434 578.556C353.51 539.982 280.963 472.131 203.529 468.24C136.01 465.831 71.0719 501.242 5.39814 553.35L-4.43359 561.16V1090.13H66.1848C166.013 1051.65 243.569 962.905 280.561 881.551L281.113 880.306L281.831 879.159C302.738 845.502 306.461 813.645 318.927 780.447C331.399 747.248 356.281 714.867 411.464 694.922C421.082 690.155 422.666 691.799 430.538 698C497.853 750.984 557.113 768.661 614.446 769.389C686.494 765.953 743.567 747.582 803.75 726.622C794.988 734.407 784.374 742.533 772.85 750.371C738.996 773.401 697.252 794.347 670.547 805.098C638.034 809.525 607.889 810.43 577.826 806.458C555.821 833.137 521.323 851.383 495.306 865.318C636.529 896.263 751.328 867.326 865.125 814.793C844.087 810.783 823.129 806.645 803.275 802.832C873.167 793.074 946.85 794.521 1012.51 795.042C1021.54 794.998 1028.45 794.042 1031.74 793.087C1063.04 680.384 1022.69 577.062 955.968 472.632C889.105 367.977 796.495 264.961 730.841 156.979C684.223 118.897 623.465 87.5654 559.565 55.082C514.525 64.4607 468.923 75.682 423.815 86.195ZM612.462 241.749C586.661 249.693 560.078 258.134 537.67 263.843C543.254 274.722 545.923 287.375 545.171 299.596C569.536 301.532 591.749 295.143 609.166 285.57C619.87 279.687 628.476 272.224 634.384 265.798C625.869 259.762 618.344 251.653 612.46 241.744L612.462 241.749ZM492.685 274.183C466.703 276.706 438.357 279.396 415.225 279.118C420.505 289.648 423.576 305.747 434.026 311.866C458.727 314.435 479.54 316.273 500.109 308.013C512.117 300.92 504.126 274.784 492.685 274.183ZM415.401 736.126C376.532 752.088 365.5 769.537 356.161 794.398C347.328 817.922 342.403 849.734 324.169 884.905C395.51 870.826 477.997 838.056 531.524 796.441C493.927 785.191 455.183 765.873 415.406 736.126H415.401ZM435.988 893.655C394.622 909.625 345.766 929.281 304.097 924.686C273.449 985.71 229.787 1046.06 158.535 1090.13H345.625C393.268 1024.38 429.729 965.286 435.988 893.655Z" fill="#FFF200" fill-opacity="0.05"/>
<g filter="url(#filter0_f_216_63)">
<circle cx="-152.5" cy="1120.5" r="255.5" fill="#182F67"/>
</g>
<g filter="url(#filter1_f_216_63)">
<circle cx="59.5" cy="38.5" r="211.5" fill="#FFF200" fill-opacity="0.25"/>
</g>
</g>
<defs>
<filter id="filter0_f_216_63" x="-920" y="353" width="1535" height="1535" filterUnits="userSpaceOnUse" color-interpolation-filters="sRGB">
<feFlood flood-opacity="0" result="BackgroundImageFix"/>
<feBlend mode="normal" in="SourceGraphic" in2="BackgroundImageFix" result="shape"/>
<feGaussianBlur stdDeviation="256" result="effect1_foregroundBlur_216_63"/>
</filter>
<filter id="filter1_f_216_63" x="-664" y="-685" width="1447" height="1447" filterUnits="userSpaceOnUse" color-interpolation-filters="sRGB">
<feFlood flood-opacity="0" result="BackgroundImageFix"/>
<feBlend mode="normal" in="SourceGraphic" in2="BackgroundImageFix" result="shape"/>
<feGaussianBlur stdDeviation="256" result="effect1_foregroundBlur_216_63"/>
</filter>
<clipPath id="clip0_216_63">
<rect width="1087" height="1101" fill="white"/>
</clipPath>
</defs>
</svg>
