<svg width="307" height="30" viewBox="0 0 307 30" fill="none" xmlns="http://www.w3.org/2000/svg">
<path d="M0.512 29.896V20.2H4.992L7.296 20.264H24.576L25.888 20.2H32.352V29.896H27.264V25H5.6V29.896H0.512ZM5.664 0.999998H28.16V23.272H22.752V3.304L25.184 5.736H8.576L10.848 3.976C10.976 5.04267 11.0613 6.09867 11.104 7.144C11.1467 8.18933 11.168 9.17067 11.168 10.088C11.168 12.6907 10.9653 14.8987 10.56 16.712C10.1547 18.504 9.54667 19.8693 8.736 20.808C7.92533 21.7253 6.92267 22.184 5.728 22.184L3.488 20.296C4.384 19.272 5.04533 17.832 5.472 15.976C5.92 14.0987 6.144 11.7627 6.144 8.968C6.144 7.73067 6.10133 6.44 6.016 5.096C5.93067 3.752 5.81333 2.38666 5.664 0.999998ZM33.2508 25L42.7548 9.768L46.6588 13.224L39.4268 25H33.2508ZM71.2028 25L64.0348 13.224L67.9068 9.768L77.4108 25H71.2028ZM57.9868 19.976L56.4828 19.432L71.2668 0.999998H77.0588L57.3148 25H53.3468L33.6028 0.999998H39.3948L54.1788 19.432L52.6428 19.976V0.999998H57.9868V19.976ZM79.9015 25V0.999998H85.2135V22.248L83.5815 21.928L98.7495 0.999998H105.822V25H100.51V3.464L102.142 3.784L86.7815 25H79.9015ZM110.745 0.999998H116.185V25H110.745V0.999998ZM129.945 0.999998H135.385V25H129.945V0.999998ZM113.721 10.472H132.345V15.24H113.721V10.472ZM147.956 3.432H153.364V25H147.956V3.432ZM138.388 0.999998H162.9V5.8H138.388V0.999998ZM179.021 0.999998C180.919 0.999998 182.562 1.33066 183.949 1.992C185.335 2.65333 186.391 3.58133 187.117 4.776C187.863 5.97067 188.237 7.35733 188.237 8.936C188.237 10.5147 187.863 11.9013 187.117 13.096C186.391 14.2693 185.335 15.1973 183.949 15.88C182.562 16.5413 180.919 16.872 179.021 16.872H168.429V12.392H178.733C179.991 12.392 180.973 12.0827 181.677 11.464C182.402 10.8453 182.765 10.0027 182.765 8.936C182.765 7.848 182.402 7.00533 181.677 6.408C180.973 5.78933 179.991 5.48 178.733 5.48H168.909L171.373 2.888V25H165.933V0.999998H179.021ZM204.234 25.48C201.439 25.48 198.986 24.9573 196.874 23.912C194.783 22.8667 193.151 21.416 191.978 19.56C190.804 17.6827 190.218 15.496 190.218 13C190.218 10.504 190.804 8.328 191.978 6.472C193.151 4.59466 194.783 3.13333 196.874 2.088C198.986 1.04267 201.439 0.519999 204.234 0.519999C207.028 0.519999 209.471 1.04267 211.562 2.088C213.674 3.13333 215.316 4.59466 216.49 6.472C217.663 8.328 218.25 10.504 218.25 13C218.25 15.496 217.663 17.6827 216.49 19.56C215.316 21.416 213.674 22.8667 211.562 23.912C209.471 24.9573 207.028 25.48 204.234 25.48ZM204.234 20.648C205.983 20.648 207.487 20.3387 208.746 19.72C210.026 19.1013 211.007 18.216 211.69 17.064C212.394 15.912 212.746 14.5573 212.746 13C212.746 11.4427 212.394 10.088 211.69 8.936C211.007 7.784 210.026 6.89867 208.746 6.28C207.487 5.66133 205.983 5.352 204.234 5.352C202.506 5.352 201.002 5.66133 199.722 6.28C198.442 6.89867 197.45 7.784 196.746 8.936C196.063 10.088 195.722 11.4427 195.722 13C195.722 14.5573 196.063 15.912 196.746 17.064C197.45 18.216 198.442 19.1013 199.722 19.72C201.002 20.3387 202.506 20.648 204.234 20.648ZM246.507 0.999998V25H241.099V3.336L243.563 5.8H224.971L227.435 3.336V25H221.995V0.999998H246.507ZM251.433 25V0.999998H256.745V22.248L255.113 21.928L270.281 0.999998H277.353V25H272.041V3.464L273.673 3.784L258.313 25H251.433ZM282.277 0.999998H287.717V25H282.277V0.999998ZM301.477 0.999998H306.917V25H301.477V0.999998ZM285.253 10.472H303.877V15.24H285.253V10.472Z" fill="#FFF200"/>
</svg>
