<svg width="75" height="75" viewBox="0 0 75 75" fill="none" xmlns="http://www.w3.org/2000/svg">
<path d="M48.8813 46.5937L58.2469 37.2125C59.5927 35.8667 60.6375 34.3062 61.3813 32.5312C62.1271 30.7604 62.5 28.901 62.5 26.9531C62.5 22.9281 61.0958 19.5135 58.2875 16.7094C55.4792 13.9052 52.0594 12.5021 48.0281 12.5C46.0969 12.5 44.2448 12.8729 42.4719 13.6187C40.6969 14.3646 39.1354 15.4104 37.7875 16.7562L28.4094 26.1187L48.8813 46.5937ZM26.975 62.5C28.9042 62.5 30.7562 62.1271 32.5312 61.3813C34.3062 60.6375 35.8667 59.5927 37.2125 58.2469L46.5937 48.8813L26.1187 28.4094L16.7562 37.7875C15.4104 39.1333 14.3646 40.6938 13.6187 42.4688C12.8729 44.2396 12.5 46.099 12.5 48.0469C12.5 52.0719 13.9042 55.4865 16.7125 58.2906C19.5208 61.0948 22.9417 62.4979 26.975 62.5Z" fill="#182F67"/>
</svg>
