<svg width="210" height="69" viewBox="0 0 210 69" fill="none" xmlns="http://www.w3.org/2000/svg">
<path d="M12.7619 38.9507C10.1401 38.9507 7.66608 38.4857 5.33507 37.5509C3.00405 36.6184 1.22648 35.4405 0 34.015L0.919269 32.795C2.0754 34.0851 3.71696 35.1788 5.84395 36.0762C7.97094 36.9759 10.2597 37.4247 12.7104 37.4247C15.1938 37.4247 17.2364 37.0858 18.8357 36.4081C20.4351 35.7303 21.617 34.8236 22.3838 33.6854C23.1483 32.5497 23.5329 31.2877 23.5329 29.8948C23.5329 28.2659 23.1249 26.9619 22.3088 25.978C21.4927 24.9941 20.4116 24.2159 19.0679 23.6387C17.7242 23.0614 16.2608 22.587 14.6779 22.2154C13.095 21.8415 11.4956 21.4442 9.87984 21.0189C8.26408 20.5959 6.78199 20.0514 5.43825 19.39C4.09452 18.7286 3.02281 17.8125 2.22314 16.644C1.42346 15.4732 1.02245 13.9565 1.02245 12.0915C1.02245 10.4977 1.44691 9.0067 2.29818 7.61618C3.14945 6.22567 4.47677 5.09923 6.28014 4.23454C8.08351 3.36985 10.3981 2.9375 13.2216 2.9375C15.161 2.9375 17.0746 3.2343 18.9647 3.8279C20.8525 4.4215 22.4612 5.20907 23.7885 6.19295L23.024 7.5671C21.5959 6.51545 20.013 5.7349 18.2776 5.22777C16.5422 4.7183 14.8749 4.46356 13.2755 4.46356C10.8929 4.46356 8.91132 4.81178 7.32839 5.50587C5.74546 6.2023 4.57995 7.12541 3.83187 8.27755C3.08379 9.4297 2.70857 10.7034 2.70857 12.0915C2.70857 13.7532 3.11662 15.0759 3.9327 16.0598C4.74879 17.0437 5.82988 17.8242 7.17361 18.3991C8.51735 18.9764 9.99006 19.4508 11.5894 19.8223C13.1888 20.1963 14.7881 20.5936 16.3875 21.0189C17.9868 21.4442 19.4572 21.9934 20.8032 22.6712C22.147 23.3489 23.2187 24.258 24.0184 25.3938C24.818 26.5295 25.219 28.0135 25.219 29.8458C25.219 31.4396 24.7852 32.9329 23.9175 34.3211C23.0498 35.7116 21.6873 36.8311 19.8347 37.6794C17.9774 38.5254 15.6206 38.9507 12.7619 38.9507Z" fill="#FFF200"/>
<path d="M44.7651 38.7452V3.13867H57.1683C60.1278 3.13867 62.6722 3.61308 64.7992 4.56191C66.9262 5.51073 68.5513 6.85918 69.6746 8.60492C70.7979 10.353 71.3584 12.4633 71.3584 14.9382C71.3584 17.4131 70.7979 19.5351 69.6746 21.2972C68.5513 23.0616 66.9262 24.4171 64.7992 25.3659C62.6722 26.3147 60.1278 26.7891 57.1683 26.7891H45.7337L46.5005 25.9759V38.7429H44.7651V38.7452ZM46.5028 25.9782L45.736 25.214H57.2715C61.2863 25.214 64.3583 24.3166 66.4853 22.5171C68.6123 20.7199 69.6746 18.1936 69.6746 14.9382C69.6746 11.6828 68.61 9.16346 66.4853 7.385C64.3583 5.60421 61.2863 4.71381 57.2715 4.71381H45.736L46.5028 3.90054V25.9782Z" fill="#FFF200"/>
<path d="M134.758 38.7452V3.13867H147.161C150.12 3.13867 152.665 3.61308 154.792 4.56191C156.919 5.51073 158.544 6.85918 159.667 8.60492C160.791 10.353 161.351 12.4633 161.351 14.9382C161.351 17.4131 160.791 19.5351 159.667 21.2972C158.544 23.0616 156.919 24.4171 154.792 25.3659C152.665 26.3147 150.12 26.7891 147.161 26.7891H135.726L136.491 25.9759V38.7429H134.758V38.7452ZM136.493 25.9782L135.729 25.214H147.264C151.279 25.214 154.351 24.3166 156.478 22.5171C158.605 20.7199 159.667 18.1936 159.667 14.9382C159.667 11.6828 158.603 9.16346 156.478 7.385C154.351 5.60421 151.279 4.71381 147.264 4.71381H135.729L136.493 3.90054V25.9782ZM159.871 38.7452L150.58 25.824H152.571L161.912 38.7452H159.871Z" fill="#FFF200"/>
<path d="M181.615 38.7447V3.13808H183.351V38.747H181.615V38.7447ZM183.097 29.5883L183.046 27.4008L206.731 3.13574H208.875L192.897 19.5672L191.877 20.5838L183.097 29.5883ZM207.854 38.7447L191.265 19.9224L192.44 18.7516L210 38.7423H207.854V38.7447Z" fill="#FFF200"/>
<path d="M50.8578 68.9995C50.0371 68.9995 49.2655 68.9154 48.5456 68.7472C47.8256 68.5789 47.2581 68.3919 46.8407 68.1863V65.4099H47.0307C47.3472 66.3728 47.8538 67.1416 48.555 67.7165C49.2561 68.2914 50.0417 68.5765 50.9141 68.5765C51.7607 68.5765 52.4384 68.3662 52.952 67.9432C53.4632 67.5202 53.7188 66.9804 53.7188 66.319C53.7188 65.8423 53.5758 65.445 53.292 65.1248C53.0083 64.8046 52.6448 64.5452 52.2016 64.3466C51.7583 64.1456 51.2237 63.9586 50.5905 63.7857C49.7322 63.5356 49.038 63.2926 48.5057 63.0542C47.9757 62.8158 47.5419 62.4863 47.2089 62.0633C46.8735 61.6403 46.707 61.1005 46.707 60.4391C46.707 59.8338 46.8806 59.2893 47.2276 58.8079C47.5747 58.3265 48.0672 57.9502 48.705 57.6791C49.3429 57.408 50.0793 57.2725 50.9118 57.2725C51.5684 57.2725 52.2227 57.3473 52.8723 57.4992C53.5218 57.6511 54.0448 57.8123 54.4364 57.9852V60.5349H54.2465C53.944 59.6679 53.4843 58.9785 52.8723 58.4643C52.2602 57.9502 51.5168 57.6931 50.6468 57.6931C50.166 57.6931 49.7275 57.7773 49.3288 57.9455C48.9302 58.1138 48.6112 58.3568 48.372 58.677C48.1328 58.9972 48.0132 59.3734 48.0132 59.8058C48.0132 60.2381 48.1563 60.6004 48.4401 60.8925C48.7238 61.1846 49.0896 61.4277 49.5399 61.624C49.9878 61.8179 50.56 62.0189 51.2542 62.2246C52.1007 62.4746 52.7855 62.7177 53.3108 62.9561C53.8338 63.1944 54.2793 63.5356 54.6475 63.9797C55.0133 64.4237 55.1962 64.9963 55.1962 65.6997C55.1962 66.3377 55.0086 66.9103 54.6381 67.4127C54.2652 67.9152 53.7517 68.3055 53.095 68.5812C52.4361 68.8617 51.6927 68.9995 50.8578 68.9995Z" fill="white"/>
<path d="M70.146 68.7405C70.3101 68.5465 70.4485 68.3011 70.5634 68.009C70.676 67.7169 70.7346 67.42 70.7346 67.1162V57.7963H69.5222C68.8656 57.7963 68.3121 57.8944 67.8642 58.0884C67.4163 58.2824 67.0434 58.5511 66.7456 58.8923C66.4478 59.2335 66.1687 59.6635 65.9014 60.1824H65.7114L66.1289 57.4551H77.1555L77.5541 60.1824H77.3642C77.1109 59.6635 76.8342 59.2335 76.5317 58.8923C76.2291 58.5511 75.8516 58.2824 75.4037 58.0884C74.9558 57.8944 74.4094 57.7963 73.7645 57.7963H72.5333V67.1162C72.5333 67.42 72.5896 67.7169 72.7045 68.009C72.817 68.3011 72.9577 68.5442 73.1219 68.7405V68.8222H70.1483V68.7405H70.146Z" fill="white"/>
<path d="M94.0755 68.9999C92.4832 68.9999 91.2356 68.6774 90.3328 68.0347C89.4299 67.392 88.9773 66.4782 88.9773 65.2981V59.1611C88.9773 58.8573 88.921 58.5605 88.8061 58.2684C88.6935 57.9762 88.5528 57.7332 88.3887 57.5369V57.4551H91.3622V57.5369C91.1981 57.7308 91.0597 57.9762 90.9448 58.2684C90.8323 58.5605 90.7736 58.8596 90.7736 59.1611V65.2981C90.7736 66.3147 91.1113 67.1022 91.7867 67.6608C92.4621 68.2193 93.3556 68.4974 94.4671 68.4974C95.5787 68.4974 96.4722 68.2193 97.1476 67.6608C97.823 67.1046 98.1607 66.317 98.1607 65.2981V59.1611C98.1607 58.869 98.0903 58.5979 97.9519 58.3501C97.8136 58.1024 97.6049 57.8313 97.3258 57.5392V57.4574H99.4856V57.5392C99.2066 57.8313 99.0002 58.1024 98.8595 58.3501C98.7211 58.6002 98.6508 58.869 98.6508 59.1611V65.2981C98.6508 66.4666 98.2404 67.3757 97.4196 68.0253C96.6059 68.675 95.4896 68.9999 94.0755 68.9999Z" fill="white"/>
<path d="M111.542 68.7405C111.706 68.5465 111.844 68.3011 111.959 68.009C112.074 67.7169 112.13 67.42 112.13 67.1162V59.1611C112.13 58.8573 112.074 58.5605 111.959 58.2684C111.846 57.9762 111.706 57.7332 111.542 57.5369V57.4551H116.354C117.592 57.4551 118.722 57.6444 119.745 58.023C120.767 58.4016 121.593 59.0139 122.216 59.8575C122.842 60.7012 123.154 61.7949 123.154 63.1363C123.154 64.4778 122.842 65.5715 122.216 66.4151C121.59 67.2588 120.767 67.8711 119.745 68.2497C118.722 68.6283 117.592 68.8176 116.354 68.8176H111.542V68.7405ZM115.92 68.4647C116.931 68.4647 117.826 68.2871 118.61 67.9295C119.393 67.572 120.014 66.9947 120.476 66.2001C120.938 65.4056 121.168 64.3843 121.168 63.1387C121.168 61.893 120.938 60.8765 120.476 60.0865C120.014 59.2966 119.393 58.7194 118.61 58.3572C117.826 57.9949 116.931 57.8126 115.92 57.8126C115.315 57.8126 114.651 57.8944 113.931 58.0557V68.2193C114.649 68.3829 115.312 68.4647 115.92 68.4647Z" fill="white"/>
<path d="M135.131 68.7405C135.295 68.5465 135.433 68.3011 135.548 68.009C135.663 67.7169 135.719 67.42 135.719 67.1162V59.1611C135.719 58.8573 135.663 58.5605 135.548 58.2684C135.436 57.9762 135.295 57.7332 135.131 57.5369V57.4551H138.048V57.5369C137.884 57.7308 137.746 57.9762 137.631 58.2684C137.516 58.5605 137.46 58.8596 137.46 59.1611V67.1162C137.46 67.42 137.516 67.7169 137.631 68.009C137.743 68.3011 137.884 68.5442 138.048 68.7405V68.8222H135.131V68.7405Z" fill="white"/>
<path d="M156.143 68.9997C154.93 68.9997 153.863 68.7567 152.942 68.2683C152.02 67.7822 151.302 67.0928 150.791 66.207C150.28 65.3213 150.024 64.2977 150.024 63.1386C150.024 61.9794 150.28 60.9581 150.791 60.0701C151.302 59.182 152.02 58.4949 152.942 58.0088C153.863 57.5227 154.93 57.2773 156.143 57.2773C157.355 57.2773 158.422 57.5204 159.344 58.0088C160.265 58.4949 160.983 59.1843 161.494 60.0701C162.005 60.9581 162.261 61.9817 162.261 63.1386C162.261 64.2977 162.005 65.319 161.494 66.207C160.983 67.0951 160.265 67.7822 159.344 68.2683C158.422 68.7567 157.355 68.9997 156.143 68.9997ZM156.143 68.6422C156.964 68.6422 157.686 68.4085 158.312 67.9434C158.938 67.4784 159.421 66.8287 159.761 65.9944C160.101 65.1601 160.272 64.2089 160.272 63.1362C160.272 62.0635 160.101 61.1124 159.761 60.278C159.421 59.4437 158.938 58.7964 158.312 58.329C157.686 57.8639 156.964 57.6302 156.143 57.6302C155.322 57.6302 154.6 57.8639 153.974 58.329C153.347 58.7941 152.864 59.4437 152.524 60.278C152.184 61.1124 152.013 62.0635 152.013 63.1362C152.013 64.2089 152.184 65.1601 152.524 65.9944C152.864 66.8287 153.347 67.4784 153.974 67.9434C154.597 68.4108 155.32 68.6422 156.143 68.6422Z" fill="white"/>
<path d="M115.779 39.5701H90.3726L91.0456 38.1118C95.2292 29.5771 100.682 24.2791 105.747 20.9886L104.868 19.1027C100.121 20.7245 96.111 23.0148 93.0577 25.1251C86.74 29.4906 83.0371 34.0501 83.002 34.0945L79.5781 38.0721L97.3304 0L105.529 17.5836C109.682 16.2819 114.349 15.5013 119.402 15.742L125.145 16.0155L119.477 16.969C119.44 16.976 119.379 16.9853 119.297 16.997C117.2 17.2962 112.548 18.287 107.335 21.4537L115.779 39.5701ZM92.3213 38.3315H113.83L106.275 22.1244C101.474 25.2747 96.3244 30.3039 92.3213 38.3315ZM97.3304 2.93995L84.341 30.7947C86.0857 29.0373 88.7849 26.5741 92.3143 24.1296C95.4239 21.9772 99.5067 19.6402 104.338 17.9739L97.3304 2.93995ZM106.056 18.7171L106.807 20.3272C109.246 18.8596 111.567 17.8477 113.575 17.1536C110.918 17.4387 108.406 17.9902 106.056 18.7171Z" fill="#FFF200"/>
<path d="M124.039 16.1055C125.191 11.7563 125.96 8.18734 125.757 8.13398C125.555 8.08062 124.456 11.5631 123.304 15.9122C122.153 20.2614 121.383 23.8304 121.586 23.8837C121.789 23.9371 122.887 20.4546 124.039 16.1055Z" fill="#FFF200"/>
<path d="M131.574 18.0868C131.628 17.8846 128.133 16.7901 123.769 15.6422C119.405 14.4943 115.823 13.7277 115.77 13.9298C115.716 14.132 119.211 15.2265 123.575 16.3744C127.939 17.5223 131.52 18.2889 131.574 18.0868Z" fill="#FFF200"/>
</svg>
